/* XPM */
static char * 0_xpm[] = {
"64 64 96 2",
"  	c None",
". 	c #9F9F9F",
"+ 	c #7F7F7F",
"@ 	c #777777",
"# 	c #767676",
"$ 	c #979797",
"% 	c #3E3E3E",
"& 	c #404040",
"* 	c #444444",
"= 	c #8A8A8A",
"- 	c #A2A2A2",
"; 	c #9D9D9D",
"> 	c #636363",
", 	c #3F3F3F",
"' 	c #6D6D6D",
") 	c #A7A7A7",
"! 	c #A3A3A3",
"~ 	c #6B6B6B",
"{ 	c #6C6C6C",
"] 	c #4F4F4F",
"^ 	c #4E4E4E",
"/ 	c #989898",
"( 	c #464646",
"_ 	c #6E6E6E",
": 	c #757575",
"< 	c #8E8E8E",
"[ 	c #A6A6A6",
"} 	c #959595",
"| 	c #525252",
"1 	c #8B8B8B",
"2 	c #ADADAD",
"3 	c #ACACAC",
"4 	c #828282",
"5 	c #8F8F8F",
"6 	c #909090",
"7 	c #606060",
"8 	c #888888",
"9 	c #A4A4A4",
"0 	c #676767",
"a 	c #5F5F5F",
"b 	c #868686",
"c 	c #AAAAAA",
"d 	c #A5A5A5",
"e 	c #3D3D3D",
"f 	c #9E9E9E",
"g 	c #9A9A9A",
"h 	c #555555",
"i 	c #858585",
"j 	c #B2B2B2",
"k 	c #4A4A4A",
"l 	c #7C7C7C",
"m 	c #929292",
"n 	c #999999",
"o 	c #ABABAB",
"p 	c #B0B0B0",
"q 	c #484848",
"r 	c #3C3C3C",
"s 	c #4C4C4C",
"t 	c #666666",
"u 	c #747474",
"v 	c #727272",
"w 	c #737373",
"x 	c #949494",
"y 	c #717171",
"z 	c #535353",
"A 	c #919191",
"B 	c #9C9C9C",
"C 	c #B1B1B1",
"D 	c #BCBCBC",
"E 	c #898989",
"F 	c #494949",
"G 	c #A9A9A9",
"H 	c #515151",
"I 	c #434343",
"J 	c #505050",
"K 	c #6A6A6A",
"L 	c #474747",
"M 	c #575757",
"N 	c #424242",
"O 	c #565656",
"P 	c #4B4B4B",
"Q 	c #818181",
"R 	c #AEAEAE",
"S 	c #939393",
"T 	c #545454",
"U 	c #7E7E7E",
"V 	c #A1A1A1",
"W 	c #AFAFAF",
"X 	c #4D4D4D",
"Y 	c #A0A0A0",
"Z 	c #9B9B9B",
"` 	c #878787",
" .	c #838383",
"..	c #A8A8A8",
"+.	c #969696",
"@.	c #808080",
"                                                                                                                                ",
"                                                                                                                                ",
"                                                                                                                                ",
"                                                                                                                                ",
"                                                                                                                                ",
"                                                                                                                                ",
"                                                                                                                                ",
"                                                                                                                                ",
"                                                                                                                                ",
"                                                                                                                                ",
"                                                                                                                                ",
"                                                                                                                                ",
"                                                                                                                                ",
"                                                                                                                                ",
"                                                                                                                                ",
"                                                                                                                                ",
"                      . + @ # @ .                                                                                               ",
"                      $ % & & & * = -                                                                                           ",
"                    ; > & & & & & , ' )                                                                                         ",
"                    ! ~ { ] & & & & & ^ /                                                                                       ",
"                          . ( & & & & & & _ : < [                                                                               ",
"                            } & & & & & & & & & | : : : : 1     2 3                                                             ",
"                            / 4 , & & & & & & & & & & & & ^ 5 6 7 8                                                             ",
"                              9 0 & & & & & & & & a _ _ _ b     3 c                                                             ",
"                              d < , & & & & & & e f                                                                             ",
"                          g : h % & & & & & & & & i                                                                             ",
"                        j 7 & & & & & & & & & & & k l 5 m . n 3 o 3                                                             ",
"                        p q & & & & & & & & & & & & & & & % r & q s t @ d                       ) u v w x [                     ",
"              n y v w v t , & & & & & & & & & & & & & & & & & & & & & & z l < A B B 9 C d D   ; E & & & , F + . c               ",
"      2 G g = H & & & & & & & & & & & & & & & & & & & & & & & & & & & & & & & & , r e I q J K v L & & & & & & , > x [           ",
"    9 M N e & & & & & & & & & & & & & & & & & & & & & & & & & & & & & & & & & & & & & & & & & & & & & & & & & & & , k 4 f       ",
"    < , & & & & & & & & & & & & & & & & & & & & & & & & & & & & & & & & & & & & & & & & & & & & & & & & & & & & & & & & * g     ",
"    5 , & & & & & & & & & & & & & & & & & & & & & & & & & & & & & & & & & & & & & & & & & & & & & & & & & & & & & & & & * n     ",
"    ! O N % & & & & & & & & & & & & & & & & & & & & & & & & & & & & & & & & & & & & & & & & & & & & & & & & & & & , P Q .       ",
"      R G g E H & & & & & & & & & & & & & & & & & & & & & & & & & & & & & & & & % e e I q J K v F & & & & & & , > S )           ",
"              g y v v v t , & & & & & & & & & & & & & & & & & & & & & & T l < A B ; ! C 9 D   ; 8 & & & , k U V G               ",
"                        W F & & & & & & & & & & & & & & & % r & q X t : d                       d w v w x [                     ",
"                        j a & & & & & & & & & & & P l 5 m Y n o o 2                                                             ",
"                          Z # z % & & & & & & & & b                                                                             ",
"                              d 5 , & & & & & & % f                                                                             ",
"                              d 0 & & & & & & & , a ' _ _ `     3 o                                                             ",
"                            /  ., & & & & & & & & & & & & ] < 6 > E                                                             ",
"                            } , & & & & & & & & H : : u : 1     R ..                                                            ",
"                          f ( & & & & & & _ : < )                                                                               ",
"                    ! { { ] & & & & & ^ /                                                                                       ",
"                    . > & & & & & % ' [                                                                                         ",
"                      +.% & & & I = -                                                                                           ",
"                      ; @.# # @ f                                                                                               ",
"                                                                                                                                ",
"                                                                                                                                ",
"                                                                                                                                ",
"                                                                                                                                ",
"                                                                                                                                ",
"                                                                                                                                ",
"                                                                                                                                ",
"                                                                                                                                ",
"                                                                                                                                ",
"                                                                                                                                ",
"                                                                                                                                ",
"                                                                                                                                ",
"                                                                                                                                ",
"                                                                                                                                ",
"                                                                                                                                ",
"                                                                                                                                "};
