/* XPM */
static char * 5_xpm[] = {
"64 64 121 2",
"  	c None",
". 	c #8E8E8E",
"+ 	c #9B9B9B",
"@ 	c #797979",
"# 	c #636363",
"$ 	c #828282",
"% 	c #8B8B8B",
"& 	c #696969",
"* 	c #3F3F3F",
"= 	c #5B5B5B",
"- 	c #7C7C7C",
"; 	c #9E9E9E",
"> 	c #6A6A6A",
", 	c #3C3C3C",
"' 	c #3E3E3E",
") 	c #585858",
"! 	c #888888",
"~ 	c #9F9F9F",
"{ 	c #676767",
"] 	c #313131",
"^ 	c #414141",
"/ 	c #5C5C5C",
"( 	c #818181",
"_ 	c #959595",
": 	c #8F8F8F",
"< 	c #6C6C6C",
"[ 	c #3D3D3D",
"} 	c #535353",
"| 	c #858585",
"1 	c #989898",
"2 	c #686868",
"3 	c #383838",
"4 	c #626262",
"5 	c #848484",
"6 	c #969696",
"7 	c #999999",
"8 	c #404040",
"9 	c #666666",
"0 	c #444444",
"a 	c #6B6B6B",
"b 	c #575757",
"c 	c #757575",
"d 	c #949494",
"e 	c #707070",
"f 	c #3B3B3B",
"g 	c #393939",
"h 	c #565656",
"i 	c #868686",
"j 	c #464646",
"k 	c #6D6D6D",
"l 	c #939393",
"m 	c #747474",
"n 	c #3A3A3A",
"o 	c #4B4B4B",
"p 	c #767676",
"q 	c #9A9A9A",
"r 	c #787878",
"s 	c #646464",
"t 	c #4A4A4A",
"u 	c #9C9C9C",
"v 	c #909090",
"w 	c #737373",
"x 	c #484848",
"y 	c #7D7D7D",
"z 	c #A6A6A6",
"A 	c #979797",
"B 	c #616161",
"C 	c #7F7F7F",
"D 	c #A1A1A1",
"E 	c #808080",
"F 	c #474747",
"G 	c #343434",
"H 	c #424242",
"I 	c #363636",
"J 	c #5E5E5E",
"K 	c #545454",
"L 	c #2C2C2C",
"M 	c #525252",
"N 	c #8C8C8C",
"O 	c #4D4D4D",
"P 	c #272727",
"Q 	c #919191",
"R 	c #373737",
"S 	c #8D8D8D",
"T 	c #454545",
"U 	c #4F4F4F",
"V 	c #9D9D9D",
"W 	c #8A8A8A",
"X 	c #555555",
"Y 	c #434343",
"Z 	c #A0A0A0",
"` 	c #A2A2A2",
" .	c #505050",
"..	c #A3A3A3",
"+.	c #7A7A7A",
"@.	c #4C4C4C",
"#.	c #6F6F6F",
"$.	c #353535",
"%.	c #898989",
"&.	c #717171",
"*.	c #727272",
"=.	c #494949",
"-.	c #606060",
";.	c #333333",
">.	c #929292",
",.	c #A8A8A8",
"'.	c #838383",
").	c #656565",
"!.	c #777777",
"~.	c #B0B0B0",
"{.	c #5D5D5D",
"].	c #5A5A5A",
"^.	c #4E4E4E",
"/.	c #7B7B7B",
"(.	c #2F2F2F",
"_.	c #878787",
":.	c #6E6E6E",
"<.	c #515151",
"[.	c #5F5F5F",
"}.	c #2E2E2E",
"|.	c #282828",
"                                                                                                                                ",
"                                                                                                                                ",
"                                                                                                                                ",
"                                                                                                                                ",
"                                        . . +                                                                                   ",
"                                        @ # $                                                                                   ",
"                                      % & * = - ;                                                                               ",
"                                        > , ' ) !                                                                               ",
"                                      ~ { ' ] ^ / ( _                                                                           ",
"                                      : < ' [ [ ' } |                                                                           ",
"                                      1 2 , * ^ 3 ^ 4 5 6                                                                       ",
"                                      7 < ' , 8 * , ' 9 |                                                                       ",
"                                        < ' ' 8 8 8 3 0 <                                                                       ",
"                                      1 a ' ' 8 8 ^ ' 3 b c                                                                     ",
"                                      d e 8 f 8 8 8 * g h i                                                                     ",
"                                        c j g 8 8 8 [ 0 k l                                                                     ",
"                                        m b f n ' * * o p q                                                                     ",
"                                          r s t * ' ' 0 { 7                                                                     ",
"                                          u v w } 8 f [ x y z                                                                   ",
"                                              ( & ' * * 3 s A                                                                   ",
"                                              1 B [ ' ^ g j C u                                                                 ",
"                                              D E F G H ' I J 6                                                                 ",
"                                                6 K G H H L M i                                                                 ",
"                                                u > ^ , ^ f * { N                                                               ",
"                                                  | O P H 8 g M C                                                               ",
"                                                  Q = f 8 ^ R ^ > C                                                             ",
"                                                  S e T n 8 * ' j # !                                                           ",
"                                                    C U 3 8 8 * n ^ { i V       W _                                             ",
"                                                    C X f 8 8 8 ' f Y a Z     ` S                                               ",
"                                                    $  .3 8 8 8 8 * f O %       q d ..                                          ",
"                                                    +.@.f * 8 8 8 8 , ' #.+     V y E                                           ",
"                                                    5 U n 8 8 8 8 8 ^ $.U %.    ! > / r                                         ",
"                                                    6 h I 8 8 8 8 8 8 3 H &.v     & U *.                                        ",
"                                              u     Z &.' f 8 8 8 8 8 ' I b N     - X s                                         ",
"                                            Q A       ! =.R ^ 8 8 8 8 ^ R j w     6 = t k D                                     ",
"                                            l %       l -.;.[ ^ 8 8 8 8 ' ' } { 5 E } I U C                                     ",
"                                              l Z     >.c ' , ^ 8 8 8 8 8 ' ' T t =.[ n 8 / c ,.                                ",
"                                              % | '.    '. .[ 8 8 8 8 8 8 8 [ f * f g ^ f Y ).S                                 ",
"                                              ( ) <     | -.[ [ 8 8 8 8 8 8 8 8 8 ^ ^ 8 * R x s !._ +                           ",
"                                              *.h ).5 ~.A {.' ' 8 8 8 8 8 8 8 8 8 8 8 8 8 * g ^ 8 w i                           ",
"                                                > M c 7 '. .' 8 8 8 8 8 8 8 8 8 8 8 ^ 8 8 8 8 * R 0 ].*..                       ",
"                                                w ^.X a } , [ 8 8 8 8 8 8 8 8 8 8 8 8 , [ , g , f * g U @                       ",
"                                                /. .g 0 f [ * 8 8 8 8 8 8 8 8 8 8 8 ' ^ o h o j , n (., B @                     ",
"                                                l K 3 * ' 8 8 8 8 8 8 8 8 8 8 8 8 8 3 t k _.'.k { M H $.=.@                     ",
"                                                5 -.* ' 8 8 8 8 8 8 8 8 8 8 8 8 8 ^ , T w D   >.W '.{ 8 F /.:                   ",
"                                                  { 8 [ 8 8 8 8 8 8 8 8 8 8 8 8 8 8 f H >             < m W                     ",
"                                                6 ).H [ 8 8 * 8 8 8 8 8 8 8 8 8 8 ' 3 } C >.          %.%                       ",
"                                                _.2 [ * * ' * * ' 8 8 8 8 8 8 8 8 , 0 :.                                        ",
"                                                v B R ^ , [ <.} 8 n ^ 8 8 8 8 8 * ' 9 >.                                        ",
"                                                y ' g [ [ / C '.{.I ;.f ' 8 8 8 ' * 4 !.                                        ",
"                                              Q *.T f [ x *.+ D *.b } O Y , [ 8 * [  .!.                                        ",
"                                              1 4 ^ 3 , {.%     W 5 N N 9 H ' 8 8 n Y >                                         ",
"                                              _.B * G x *.:         D   w X * ' 8 ' g ) 5                                       ",
"                                                #.^ R 4 N                 9 8 g ^ * R J !                                       ",
"                                                w T 3 [.                  *.=.f [ * [ 9 _.                                      ",
"                                                /.> X & /.                ( w b ^ 3 f # _                                       ",
"                                                  : i 5 l                     ( U , }.h i                                       ",
"                                                                              d #.g |.@.( Z                                     ",
"                                                                                N { t < v                                       ",
"                                                                                Z S i N                                         ",
"                                                                                                                                ",
"                                                                                                                                ",
"                                                                                                                                ",
"                                                                                                                                "};
