/* XPM */
static char * 6_xpm[] = {
"64 64 115 2",
"  	c None",
". 	c #909090",
"+ 	c #959595",
"@ 	c #8A8A8A",
"# 	c #797979",
"$ 	c #696969",
"% 	c #747474",
"& 	c #848484",
"* 	c #9C9C9C",
"= 	c #6D6D6D",
"- 	c #3F3F3F",
"; 	c #494949",
"> 	c #595959",
", 	c #7A7A7A",
"' 	c #828282",
") 	c #8E8E8E",
"! 	c #737373",
"~ 	c #535353",
"{ 	c #333333",
"] 	c #373737",
"^ 	c #464646",
"/ 	c #555555",
"( 	c #636363",
"_ 	c #818181",
": 	c #878787",
"< 	c #8F8F8F",
"[ 	c #5E5E5E",
"} 	c #3B3B3B",
"| 	c #393939",
"1 	c #3D3D3D",
"2 	c #383838",
"3 	c #3E3E3E",
"4 	c #525252",
"5 	c #6B6B6B",
"6 	c #7C7C7C",
"7 	c #9E9E9E",
"8 	c #4B4B4B",
"9 	c #3C3C3C",
"0 	c #414141",
"a 	c #3A3A3A",
"b 	c #515151",
"c 	c #686868",
"d 	c #585858",
"e 	c #404040",
"f 	c #4D4D4D",
"g 	c #8C8C8C",
"h 	c #999999",
"i 	c #6E6E6E",
"j 	c #434343",
"k 	c #6F6F6F",
"l 	c #949494",
"m 	c #676767",
"n 	c #424242",
"o 	c #5F5F5F",
"p 	c #858585",
"q 	c #989898",
"r 	c #565656",
"s 	c #454545",
"t 	c #575757",
"u 	c #4E4E4E",
"v 	c #7D7D7D",
"w 	c #919191",
"x 	c #777777",
"y 	c #484848",
"z 	c #9B9B9B",
"A 	c #787878",
"B 	c #646464",
"C 	c #323232",
"D 	c #898989",
"E 	c #9A9A9A",
"F 	c #727272",
"G 	c #363636",
"H 	c #444444",
"I 	c #353535",
"J 	c #4A4A4A",
"K 	c #868686",
"L 	c #808080",
"M 	c #9F9F9F",
"N 	c #8D8D8D",
"O 	c #A4A4A4",
"P 	c #505050",
"Q 	c #888888",
"R 	c #7F7F7F",
"S 	c #5C5C5C",
"T 	c #5D5D5D",
"U 	c #757575",
"V 	c #626262",
"W 	c #6C6C6C",
"X 	c #4F4F4F",
"Y 	c #7B7B7B",
"Z 	c #8B8B8B",
"` 	c #979797",
" .	c #7E7E7E",
"..	c #717171",
"+.	c #6A6A6A",
"@.	c #656565",
"#.	c #707070",
"$.	c #A0A0A0",
"%.	c #666666",
"&.	c #474747",
"*.	c #545454",
"=.	c #313131",
"-.	c #5A5A5A",
";.	c #767676",
">.	c #929292",
",.	c #4C4C4C",
"'.	c #A6A6A6",
").	c #5B5B5B",
"!.	c #B2B2B2",
"~.	c #9D9D9D",
"{.	c #838383",
"].	c #A5A5A5",
"^.	c #303030",
"/.	c #282828",
"(.	c #606060",
"                                                                                                                                ",
"                                                                                                                                ",
"                                                                                                                                ",
"                                                                                                                                ",
"                                                                                                                                ",
"                                                                                                                                ",
"                                                                                                                                ",
"                                                                                                                                ",
"                                                                                                                                ",
"                                                                                                                                ",
"                      . +                                                                                                       ",
"                    @ # $ % & *                                                                                                 ",
"                      = - ; > , ' )                                                                                             ",
"                    ) ! ~ { ] ^ / ( _ : +                                                                                       ",
"                      < [ } | 1 2 3 4 5 6 _                                                                                     ",
"                      7 ! 8 9 0 1 9 a 1 b c !                                                                                   ",
"                        : d 2 1 e e e a ] f % g                                                                                 ",
"                        h i j 9 e e 0 e a 0 k l                                                                                 ",
"                          % d | 3 e e e 3 j i +                                                                                 ",
"                          . m 3 } e e e 3 n o p 7                                                                               ",
"                          q , r a | 9 3 3 - s t 6 7                                                                             ",
"                              i u 0 e - - } 9 ] 4 v w                                                                           ",
"                              x ! ! k o f } e 1 | y = +                                                                         ",
"                                l z . A B } 3 0 3 C s A D                                                                       ",
"                                      E F 4 G a H a I J m K               g ) l                                                 ",
"                                        q L ^ I e 0 3 2 ^ 5 # p           M N . O                                               ",
"                                          * k f { 2 j 9 ] ^ P ( A K 7         l Q R                                             ",
"                                            ) A H ] - e - 3 } | ; S Q z       q k T U                                           ",
"                                              w m ; a 1 e e 3 1 } 1 4 v z       5 t V =                                         ",
"                                                L W j | e e e e e } ] X Y Z       F / r i `                                     ",
"                                                   ./ } - e e e e e 9 G P ...     q +.e j @.#.Q $.                              ",
"                                                  : c 3 } e e e e e e a G ; x A . w ..0 | 0 u %.L # ) < :                       ",
"                                                    % &.a e e e e e e e } | f S %.%.J | - 9 2 n u u *.+.c % p                   ",
"                                                    p [ a } e e e e e e e 3 1 0 0 3 1 a e e 3 1 | 1 ] 1 - H @.F                 ",
"                                                    z K ~ ] a 0 e e e e e e - 3 9 1 e 0 0 e e e e 1 } 9 { =.e -.6               ",
"                                                      $. .X ] } e 0 e e e e e e e e e e e e - 9 } } - j n e G 9 ;.N             ",
"                                                *       +  .u C 1 0 e e e e e e e e e e e - 9 j / ( @.= ! ..t o  .              ",
"                                                + q       w U y 1 - e e e e e e e e e e e - e d v < N w       L Z               ",
"                                                >.Z         Q k ,.| 3 e e e e e e e e e e 9 9 r R '.          w                 ",
"                                                  w ` N       p ).3 - e e e e e e e e e e e 9 0 m                               ",
"                                                    K c W   !.~.$ 0 3 e e e e e e e e e e 0 9 9 %.Q                             ",
"                                                    ' S [ = >.>.( } 3 e e e e e e e e e e e 9 1 @.                              ",
"                                                      5 ( 4 @.5 &.9 - e e e e e e e e e e e 9 j v                               ",
"                                                        ! r H n 9 1 e e e e e e e e e e e e 9 f ;.                              ",
"                                                          = H ] - e e e e e e e e e e e e e 3 e S U                             ",
"                                                          >.).0 1 - e e e e - e e e e e e e - 9 0 o ..                          ",
"                                                          D #.r } 1 e - 1 - 1 } 3 } 1 3 1 3 e 3 a e -.p                         ",
"                                                            {.V 0 3 - 1 n b / j C 9 H &.9 3 - e - I X Y                         ",
"                                                            q ! f } - } r v : %.r = p #./ H } 3 0 } y = +                       ",
"                                                              ' t I 3 3 ( l ].Q {.. M   = S } ] 1 1 a > : >.                    ",
"                                                              Z ,.2 9 - +..               ..r u s } C 9 @.@                     ",
"                                                              {.o 9 | 0 5 w                 v ;.! f ^././ Z                     ",
"                                                              ) V e G e ..                      >.# o ; +.Z                     ",
"                                                              E i J { &.A                         w < K @                       ",
"                                                                Y @.a | (.                                                      ",
"                                                                  % 4 ^ (. .w                                                   ",
"                                                                    ;.Y _ D +                                                   ",
"                                                                      l                                                         ",
"                                                                                                                                ",
"                                                                                                                                ",
"                                                                                                                                ",
"                                                                                                                                ",
"                                                                                                                                ",
"                                                                                                                                "};
