/* XPM */
static char * 7_xpm[] = {
"64 64 118 2",
"  	c None",
". 	c #979797",
"+ 	c #8C8C8C",
"@ 	c #838383",
"# 	c #959595",
"$ 	c #939393",
"% 	c #8E8E8E",
"& 	c #909090",
"* 	c #8B8B8B",
"= 	c #7B7B7B",
"- 	c #666666",
"; 	c #656565",
"> 	c #646464",
", 	c #717171",
"' 	c #676767",
") 	c #616161",
"! 	c #6F6F6F",
"~ 	c #6D6D6D",
"{ 	c #737373",
"] 	c #878787",
"^ 	c #404040",
"/ 	c #3C3C3C",
"( 	c #393939",
"_ 	c #3F3F3F",
": 	c #3B3B3B",
"< 	c #3E3E3E",
"[ 	c #424242",
"} 	c #484848",
"| 	c #585858",
"1 	c #767676",
"2 	c #787878",
"3 	c #606060",
"4 	c #454545",
"5 	c #333333",
"6 	c #3A3A3A",
"7 	c #3D3D3D",
"8 	c #353535",
"9 	c #8D8D8D",
"0 	c #9B9B9B",
"a 	c #8F8F8F",
"b 	c #A7A7A7",
"c 	c #868686",
"d 	c #5E5E5E",
"e 	c #444444",
"f 	c #414141",
"g 	c #515151",
"h 	c #757575",
"i 	c #9A9A9A",
"j 	c #A5A5A5",
"k 	c #999999",
"l 	c #919191",
"m 	c #7D7D7D",
"n 	c #898989",
"o 	c #A0A0A0",
"p 	c #828282",
"q 	c #636363",
"r 	c #383838",
"s 	c #525252",
"t 	c #5C5C5C",
"u 	c #6C6C6C",
"v 	c #858585",
"w 	c #9D9D9D",
"x 	c #686868",
"y 	c #6A6A6A",
"z 	c #989898",
"A 	c #888888",
"B 	c #8A8A8A",
"C 	c #777777",
"D 	c #6B6B6B",
"E 	c #7E7E7E",
"F 	c #929292",
"G 	c #4D4D4D",
"H 	c #565656",
"I 	c #5F5F5F",
"J 	c #535353",
"K 	c #6E6E6E",
"L 	c #4E4E4E",
"M 	c #373737",
"N 	c #464646",
"O 	c #505050",
"P 	c #9C9C9C",
"Q 	c #555555",
"R 	c #727272",
"S 	c #7A7A7A",
"T 	c #7C7C7C",
"U 	c #848484",
"V 	c #949494",
"W 	c #A1A1A1",
"X 	c #808080",
"Y 	c #7F7F7F",
"Z 	c #5A5A5A",
"` 	c #434343",
" .	c #363636",
"..	c #313131",
"+.	c #4C4C4C",
"@.	c #4F4F4F",
"#.	c #707070",
"$.	c #595959",
"%.	c #4B4B4B",
"&.	c #696969",
"*.	c #494949",
"=.	c #343434",
"-.	c #5D5D5D",
";.	c #575757",
">.	c #9F9F9F",
",.	c #474747",
"'.	c #9E9E9E",
").	c #A3A3A3",
"!.	c #747474",
"~.	c #4A4A4A",
"{.	c #5B5B5B",
"].	c #797979",
"^.	c #969696",
"/.	c #292929",
"(.	c #545454",
"_.	c #818181",
":.	c #626262",
"<.	c #323232",
"                                                                                                                                ",
"                                                                                                                                ",
"                                                                                                                                ",
"                                                                                                                                ",
"                                                                                                                                ",
"                                                                                                                                ",
"                                                                                                                                ",
"                                                                                                                                ",
"                                                                                                                                ",
"                                                                                                                                ",
"                                                                                                                                ",
"                                                                                                                                ",
"                                                                                                                                ",
"                                                                                                                                ",
"                                                                                                                                ",
"                                                                                                                                ",
"                                                                                                                                ",
"                                                                                                                                ",
"                                                                                                                                ",
"          . + @ # $ + % + + &                                                                                                   ",
"        * = - ; > , ' ) ! ~ { ! !                                                                                               ",
"        ] ! ^ / ( / _ : < [ _ } | 1 $                                                                                           ",
"          2 3 4 5 6 7 / / 7 6 8 7 > 9 0                             + a . b                                                     ",
"            c d e / _ _ ^ f f < : g h % i j                         k 9 l & m h                         n                       ",
"            o p q [ r < ^ ^ ^ ^ < f s t u v + $ w                       k * q t x y h z p A k v B A C D u ! , E                 ",
"              F B q 4 ( < ^ ^ ^ < < < : / G H D ] n 9                     l D I | g J I ) ; , K | L g f M N O K c               ",
"                P C q N ( : : 7 / < : < 7 ( 5 M Q d R S T S E U V 0 W         X Y Z M : < ^ ` [ _ M M  ...5 5 | X               ",
"                    v x +.: r f G +._ / ^ f _ M r : 4 Q O J s @.> , ] + a       . , f 7 7 6 7 : 7 / : < +.3 H D ]               ",
"                    k Y K t 3 #., ' $./ 8 ( ` f f / M 7 7 M 6 6 ( < G > , ] T v E Z : / f ^ ^ _ : 6 %.) h m   X %               ",
"                          C c z $ % { &.*.( r =.7 f ^ ^ _ < _ ^ 7 : =.( ^ -.3 I ;.` / _ f ^ ^ 7 ` Z , v l                       ",
"                                    P # v ; | ( ( : 7 ^ ^ ^ ^ ^ ^ ^ < : ( 6 f f : : ^ f ^ ^ < < H E #                           ",
"                                        >.a c &.Q ,.( / ^ ^ ^ ^ ^ ^ ^ ^ _ _ < < 7 _ ^ ^ ^ ^ _ ^ ;.T '.                          ",
"                                              A = u %.6 7 ^ ^ ^ ^ ^ ^ ^ ^ ^ ^ ^ ^ ^ ^ ^ ^ ^ < ( 4 d y                           ",
"                                                  U y *.( < ^ ^ ^ ^ ^ ^ ^ ^ ^ ^ ^ ^ ^ ^ ^ ^ _ < : ^ ' c                         ",
"                                                    T x 4  .6 7 f ^ f ^ ^ ^ ^ ^ ^ ^ ^ ^ ^ ^ ^ f 7 r | C                         ",
"                                                      v , J <  .r / ^ f ^ ^ ^ ^ ^ ^ ^ ^ ^ ^ ^ ^ < 6 s p                         ",
"                                                        . + #.t ^ 5 / _ _ ^ ^ ^ ^ ^ ^ ^ ^ ^ ^ ^ ^ / } ! C                       ",
"                                                          ).# n !.;.%.7 : _ ^ ^ ^ ^ ^ ^ ^ ^ ^ ^ ^ 7 < ~.{.x , A                 ",
"                                                                9 X #.O / < ^ ^ ^ ^ ^ ^ ^ ^ ^ ^ ^ ^ < / : N g ].v               ",
"                                                      z z           F ! ,./ _ ^ ^ ^ ^ ^ ^ ^ ^ ^ ^ ^ ^ _ / r / t S ^.            ",
"                                                      $ * P F Y     j v O ( _ ^ ^ ^ ^ ^ ^ ^ ^ _ < 7 < ^ ^ ^ : ` Z Y A 0         ",
"                                                      # l V X - - = + S N / ^ ^ ^ ^ ^ ^ ^ _ / / _ : _ / / 7 7 M ( +.! a         ",
"                                                            X t d H t Q _ 7 ^ ^ ^ ^ _ : : r 8 +.> t g N M 7 < 6 /./.| A         ",
"                                                              ~ D q L 6 r _ ^ ^ ^ 7 ^ N } _ g T 9 { ~ x (.d D Z @.4 &.c         ",
"                                                                  !.~ L _ 7 7 _ _ 7 ~.D = &.C &       ].T m n n Y ] n           ",
"                                                                    ^.S -.%.6 < _ 7 ;.] o &                       '.            ",
"                                                                      U C ) ,.7 < 6 J U >.                                      ",
"                                                                        ^._.:.e  ./ ~.R $                                       ",
"                                                                            X ~.r : < ; c                                       ",
"                                                                            % ; ,.M  .$.m                                       ",
"                                                                              m ;./ =.*.#.                                      ",
"                                                                              V #.(.7 <.@.~ ]                                   ",
"                                                                                U !.:.N Q 2 n                                   ",
"                                                                                    C #.Y ]                                     ",
"                                                                                                                                ",
"                                                                                                                                ",
"                                                                                                                                ",
"                                                                                                                                ",
"                                                                                                                                ",
"                                                                                                                                ",
"                                                                                                                                ",
"                                                                                                                                ",
"                                                                                                                                ",
"                                                                                                                                "};
