/* XPM */
static char * 8_xpm[] = {
"64 64 111 2",
"  	c None",
". 	c #868686",
"+ 	c #7B7B7B",
"@ 	c #727272",
"# 	c #7D7D7D",
"$ 	c #8B8B8B",
"% 	c #8F8F8F",
"& 	c #777777",
"* 	c #696969",
"= 	c #5B5B5B",
"- 	c #505050",
"; 	c #4E4E4E",
"> 	c #626262",
", 	c #808080",
"' 	c #8E8E8E",
") 	c #434343",
"! 	c #2D2D2D",
"~ 	c #303030",
"{ 	c #323232",
"] 	c #555555",
"^ 	c #8D8D8D",
"/ 	c #9A9A9A",
"( 	c #7F7F7F",
"_ 	c #4A4A4A",
": 	c #414141",
"< 	c #383838",
"[ 	c #353535",
"} 	c #5E5E5E",
"| 	c #636363",
"1 	c #909090",
"2 	c #9B9B9B",
"3 	c #858585",
"4 	c #747474",
"5 	c #717171",
"6 	c #676767",
"7 	c #4D4D4D",
"8 	c #3C3C3C",
"9 	c #363636",
"0 	c #393939",
"a 	c #464646",
"b 	c #7C7C7C",
"c 	c #979797",
"d 	c #9E9E9E",
"e 	c #848484",
"f 	c #737373",
"g 	c #6C6C6C",
"h 	c #6A6A6A",
"i 	c #656565",
"j 	c #6B6B6B",
"k 	c #545454",
"l 	c #474747",
"m 	c #3E3E3E",
"n 	c #3A3A3A",
"o 	c #3D3D3D",
"p 	c #606060",
"q 	c #818181",
"r 	c #919191",
"s 	c #5C5C5C",
"t 	c #565656",
"u 	c #4F4F4F",
"v 	c #585858",
"w 	c #989898",
"x 	c #686868",
"y 	c #787878",
"z 	c #494949",
"A 	c #3B3B3B",
"B 	c #3F3F3F",
"C 	c #404040",
"D 	c #949494",
"E 	c #8C8C8C",
"F 	c #767676",
"G 	c #939393",
"H 	c #878787",
"I 	c #999999",
"J 	c #959595",
"K 	c #929292",
"L 	c #8A8A8A",
"M 	c #6F6F6F",
"N 	c #454545",
"O 	c #444444",
"P 	c #797979",
"Q 	c #828282",
"R 	c #7E7E7E",
"S 	c #6E6E6E",
"T 	c #5F5F5F",
"U 	c #535353",
"V 	c #373737",
"W 	c #616161",
"X 	c #9C9C9C",
"Y 	c #898989",
"Z 	c #838383",
"` 	c #666666",
" .	c #4C4C4C",
"..	c #5A5A5A",
"+.	c #525252",
"@.	c #424242",
"#.	c #343434",
"$.	c #5D5D5D",
"%.	c #969696",
"&.	c #707070",
"*.	c #646464",
"=.	c #4B4B4B",
"-.	c #6D6D6D",
";.	c #888888",
">.	c #595959",
",.	c #2F2F2F",
"'.	c #2A2A2A",
").	c #515151",
"!.	c #575757",
"~.	c #9F9F9F",
"{.	c #484848",
"                                                                                                                                ",
"                                                                                                                                ",
"                                                                                                                                ",
"                                                                                                                                ",
"                                                                                                                                ",
"                                                                                                                                ",
"                                                                                                                                ",
"                                                                                                                                ",
"                                                                                                                                ",
"                                                                                                                                ",
"                                                                                                                                ",
"                                                                                                                                ",
"                                                                                                                                ",
"                                                                                                                                ",
"                                                                                                                                ",
"                                                                                                                                ",
"                                                                                              . + @ @ # $                       ",
"                                                                                          % & * = - ; > ,                       ",
"                                                                                        ' , > ) ! ~ { ] # ^                     ",
"                                                                                    / ( * _ : < [ _ } | , 1                     ",
"                                                                              2 3 4 5 6 7 8 9 0 a 6 b                           ",
"                                                              1 c d e f g h i j } k l m n o n : p q                             ",
"                                                            ^ % % r ( s = t u : 8 n n o o 8 o v + '                             ",
"                                                              /   w ^ j x y x z A o B C C o _ 4 D                               ",
"                                                                          / E } 0 o : C B 8 u F G                               ",
"                                                                            ( k 8 B : C B o a = x * H                           ",
"                                                          G I J K E e L b M } N o : : C C m 0 B O } &                           ",
"                    $ q 5 j P K                       Q R 4 S 6 6 p T p } U O 0 o C C C C B m o V O W H                         ",
"              ' e P g W ; ; > q 1 I X w 1 ^ 1 Y Z # & ` t O B < V V [ < n o m o B C C C C C C : o n  .@ f M M + e               ",
"          D . M ..+.@.0 V #.: = 5 @ j 5 p } x $.} = +.O n 0 o o o 8 8 8 B B B C C C C C C C C C C 8 m  .- U u U g + % $ %.      ",
"    I L &.*.s =.A < 8 o B m 8 : _ N 8 A n ~ [ A < 0 o 8 8 B C C C C C C C C C C C C C C C C C C C B o o 8 < 0 < l k x -.# 1     ",
"    ;.5 ; B { V o o B : : C B m m n m m m B 8 C m o C C C C C C C C C C C C C C C C C C C C C C C C C C B m m m A 0 [ V >.3     ",
"    H M 7 N < 0 m m C C C C B A m A 8 m A C B A B B m C C C C C C C C C C C C C C C C C C C C C C C C B B C m o A V ,.'.v #     ",
"      ( & S v =.8 0 n m m 8 8 : 7 ; a 0 #.[ 8 ~ 0 o 0 n o B C C C : C : : C C C C C C C C C C C C C m n o o < 0 z v t *., E     ",
"          w Z y i - O 8 0 [ m = g S x h x W *.W ..= t O A 0 8 8 o o o B C B B C C C C C C C C C C o 8 a u ; - ; ` # ;.. w       ",
"              %.$ 5 M T U ).W e %   % c J 1 ' L Q # + h !.) A < 9 n { 9 B A A B C C C C C C C C m <  .g 6 g S f R               ",
"                    1 , 4 -.R %.                      q P 4 h j i *.> !...; : o m C C C C C B 8 < A M %                         ",
"                                                          D c %.r % H Z ( + W @.< C C C C B 8 o o +.# w                         ",
"                                                                          ~.e ).8 B C C C m ) ..&.5 Q                           ",
"                                                                          X . ..8 m C C B o _ F I c                             ",
"                                                            I %.  w q ` j S | =.n B B B B 8 _ F %.                              ",
"                                                            J 1 1 K + $.} v u m 0 8 o A B o m = # D                             ",
"                                                              J     Z j j j * i $.U  .m o A n O > #                             ",
"                                                                              J , f h }  .0 V 0 l i R                           ",
"                                                                                    % , f {.m V #._ * x ( %                     ",
"                                                                                        ' &.v @.V { 8 ..b $                     ",
"                                                                                          . ( *.!.+.N *.q                       ",
"                                                                                            I Z P 5 S ( 1                       ",
"                                                                                                                                ",
"                                                                                                                                ",
"                                                                                                                                ",
"                                                                                                                                ",
"                                                                                                                                ",
"                                                                                                                                ",
"                                                                                                                                ",
"                                                                                                                                ",
"                                                                                                                                ",
"                                                                                                                                ",
"                                                                                                                                ",
"                                                                                                                                ",
"                                                                                                                                ",
"                                                                                                                                ",
"                                                                                                                                ",
"                                                                                                                                "};
