/* XPM */
static char * 9_xpm[] = {
"64 64 115 2",
"  	c None",
". 	c #757575",
"+ 	c #747474",
"@ 	c #787878",
"# 	c #858585",
"$ 	c #888888",
"% 	c #606060",
"& 	c #4F4F4F",
"* 	c #595959",
"= 	c #797979",
"- 	c #8A8A8A",
"; 	c #727272",
"> 	c #5B5B5B",
", 	c #404040",
"' 	c #2E2E2E",
") 	c #474747",
"! 	c #6D6D6D",
"~ 	c #878787",
"{ 	c #7F7F7F",
"] 	c #5E5E5E",
"^ 	c #383838",
"/ 	c #2C2C2C",
"( 	c #484848",
"_ 	c #656565",
": 	c #909090",
"< 	c #777777",
"[ 	c #4E4E4E",
"} 	c #7A7A7A",
"| 	c #767676",
"1 	c #4D4D4D",
"2 	c #393939",
"3 	c #363636",
"4 	c #414141",
"5 	c #686868",
"6 	c #9C9C9C",
"7 	c #454545",
"8 	c #3A3A3A",
"9 	c #494949",
"0 	c #8D8D8D",
"a 	c #3D3D3D",
"b 	c #535353",
"c 	c #818181",
"d 	c #989898",
"e 	c #9B9B9B",
"f 	c #7B7B7B",
"g 	c #464646",
"h 	c #3E3E3E",
"i 	c #5A5A5A",
"j 	c #828282",
"k 	c #999999",
"l 	c #9A9A9A",
"m 	c #6C6C6C",
"n 	c #444444",
"o 	c #3C3C3C",
"p 	c #646464",
"q 	c #808080",
"r 	c #838383",
"s 	c #8B8B8B",
"t 	c #737373",
"u 	c #6A6A6A",
"v 	c #5D5D5D",
"w 	c #3F3F3F",
"x 	c #4B4B4B",
"y 	c #4A4A4A",
"z 	c #4C4C4C",
"A 	c #5C5C5C",
"B 	c #868686",
"C 	c #707070",
"D 	c #666666",
"E 	c #676767",
"F 	c #585858",
"G 	c #636363",
"H 	c #616161",
"I 	c #545454",
"J 	c #373737",
"K 	c #696969",
"L 	c #565656",
"M 	c #2D2D2D",
"N 	c #262626",
"O 	c #575757",
"P 	c #939393",
"Q 	c #949494",
"R 	c #6E6E6E",
"S 	c #505050",
"T 	c #3B3B3B",
"U 	c #434343",
"V 	c #343434",
"W 	c #333333",
"X 	c #8C8C8C",
"Y 	c #8E8E8E",
"Z 	c #919191",
"` 	c #969696",
" .	c #898989",
"..	c #525252",
"+.	c #848484",
"@.	c #7C7C7C",
"#.	c #6F6F6F",
"$.	c #6B6B6B",
"%.	c #353535",
"&.	c #7D7D7D",
"*.	c #626262",
"=.	c #959595",
"-.	c #555555",
";.	c #A0A0A0",
">.	c #929292",
",.	c #979797",
"'.	c #8F8F8F",
").	c #303030",
"!.	c #717171",
"~.	c #A6A6A6",
"{.	c #7E7E7E",
"].	c #323232",
"^.	c #424242",
"/.	c #5F5F5F",
"(.	c #515151",
"                                                                                                                                ",
"                                                                                                                                ",
"                                                                                                                                ",
"                                                                                                                                ",
"                                                                                                                                ",
"                                                                                                                                ",
"                                                                                                                                ",
"                                                                                                                                ",
"                                                                                                                                ",
"                                                                                                                                ",
"                                                                                    . + @ #                                     ",
"                                                                                $ . % & * = -                                   ",
"                                                                                ; > , ' ) ! ~                                   ",
"                                                                              { ] ^ / ( _                                       ",
"                                                                            : < [ ^ ^ > }                                       ",
"                                                                            | 1 2 3 4 5 ~                                       ",
"                                                                        6 ~ _ 7 8 2 9 ; 0                                       ",
"                                                                        < 5 & 8 a 8 b c d                                       ",
"                                                                    e f ] g 8 a a h i j k                         l             ",
"                                                                  m ! i n 2 o , , a & ! ; p @           q j r : r r s           ",
"                                                              t u v [ o 2 a , , w o 4 x y z A ! B f C D v p D E % F m B         ",
"                                                          6 { G > H p I , 2 , 4 , w a 2 o J a z K p L y h o 4 h M N O {         ",
"                                                      : P Q # R _ } 0 q S 8 , 4 , , w w , h T o U n h J T h 8 V W n ; X         ",
"                                                      Y Z ` `  .      q ..h , 4 , , , , , , , h a a h w w h o ) F R +.6         ",
"                                                        6             5 y T h , , , , , , , , , , , w w a J h A @.0             ",
"                                                                0 # m I w T w , , , , , , , , , , , T a 4 9 S ! +.              ",
"                                                            Q +.#.% ..4 a w , , , , , , , , , , , h o y L p C f                 ",
"                                                      l k ~ ; > 9 2 3 a w , , , , , , , , , , , w o ) D $.                      ",
"                                                      r t A 7 %.%.8 a , , , , , , , , , , , , , w ^ O #                         ",
"                                                    { $.9 2 ^ a h w , , , , , , , , , , , , , , o W %  .                        ",
"                                                  &.D y 2 o w , , , , , , , , , , , , , , , , h ^ 8 ] j                         ",
"                                              $ } E z 8 T , , , , , , , 4 , , , , , , , , , w o 7 *.. ~                         ",
"                                        =.Z j u i y w o w , , , , 4 , , , , o o w w , , , , w w -.j e                           ",
"                                    ;.>.} D v g ^ J w , 4 , , , , w h 8 J w w h h 8 a , , , w h ..@.,.                          ",
"                          t c '.=.>.{ C S ^ ).8 w h w h a h h h o J 3 2 ) O H p O , T w , , w o U % . #                         ",
"                      q 5 i H ; | m ..a J T h h o a T 2 T 2 8 J 3 7 O E ; &.+.P r * w a w w w h T , & *.!.{   &.X               ",
"                    { K z o T g [ g 8 h h a , o ' o 1 O i F ..F G . r '.Y     ~.Z $.n 8 a o T a T ^ 2 , S p H R r               ",
"                Y {.D ( 3 2 a o h h ^ T a ].].g O *.R = {.@ = c : l            .+ i a 2 U ( n 7 a J J V W 3 h H c               ",
"              Z } A ( T a , , , a a 4 7 7 S H ! j -  .                    { D p > b b v H p E u _ x 9 4 ^.y 9 m  .              ",
"            k # *.^.3 o , 4 , , a 4 -.*.K { '.=.                        k # E /.D $.< 0 c +.Y B s = ; $._ m #.@                 ",
"            } % ) T h w , , w o 2 (.C # '.l                       l =.Z >.s &.m                     0 Z r                       ",
"        ,.{.F h M 3 h T 8 o 2 %.4 $.X                               Q >.                                                        ",
"        X C x 4 , ^., U U 7 y [ i @ ,.                                                                                          ",
"        - @ E u m ! !.! _ C #.!.#.                                                                                              ",
"            j $ k X >.>.$ Z Y                                                                                                   ",
"                                                                                                                                ",
"                                                                                                                                ",
"                                                                                                                                ",
"                                                                                                                                ",
"                                                                                                                                ",
"                                                                                                                                ",
"                                                                                                                                ",
"                                                                                                                                ",
"                                                                                                                                ",
"                                                                                                                                ",
"                                                                                                                                ",
"                                                                                                                                ",
"                                                                                                                                ",
"                                                                                                                                ",
"                                                                                                                                ",
"                                                                                                                                ",
"                                                                                                                                ",
"                                                                                                                                ",
"                                                                                                                                "};
