/* XPM */
static char * 1_xpm[] = {
"64 64 126 2",
"  	c None",
". 	c #A2A2A2",
"+ 	c #A8A8A8",
"@ 	c #969696",
"# 	c #9A9A9A",
"$ 	c #A9A9A9",
"% 	c #979797",
"& 	c #A1A1A1",
"* 	c #919191",
"= 	c #959595",
"- 	c #7A7A7A",
"; 	c #717171",
"> 	c #727272",
", 	c #4F4F4F",
"' 	c #6F6F6F",
") 	c #646464",
"! 	c #555555",
"~ 	c #545454",
"{ 	c #636363",
"] 	c #696969",
"^ 	c #9F9F9F",
"/ 	c #6B6B6B",
"( 	c #3E3E3E",
"_ 	c #353535",
": 	c #3C3C3C",
"< 	c #373737",
"[ 	c #404040",
"} 	c #393939",
"| 	c #3F3F3F",
"1 	c #2F2F2F",
"2 	c #868686",
"3 	c #606060",
"4 	c #595959",
"5 	c #8F8F8F",
"6 	c #9C9C9C",
"7 	c #909090",
"8 	c #9D9D9D",
"9 	c #A0A0A0",
"0 	c #949494",
"a 	c #7C7C7C",
"b 	c #7E7E7E",
"c 	c #8E8E8E",
"d 	c #818181",
"e 	c #999999",
"f 	c #757575",
"g 	c #383838",
"h 	c #3D3D3D",
"i 	c #787878",
"j 	c #898989",
"k 	c #767676",
"l 	c #535353",
"m 	c #747474",
"n 	c #929292",
"o 	c #989898",
"p 	c #848484",
"q 	c #666666",
"r 	c #4C4C4C",
"s 	c #414141",
"t 	c #ADADAD",
"u 	c #A4A4A4",
"v 	c #5B5B5B",
"w 	c #505050",
"x 	c #AEAEAE",
"y 	c #5C5C5C",
"z 	c #444444",
"A 	c #3A3A3A",
"B 	c #343434",
"C 	c #363636",
"D 	c #626262",
"E 	c #494949",
"F 	c #454545",
"G 	c #474747",
"H 	c #5D5D5D",
"I 	c #6E6E6E",
"J 	c #888888",
"K 	c #5E5E5E",
"L 	c #434343",
"M 	c #3B3B3B",
"N 	c #B1B1B1",
"O 	c #838383",
"P 	c #777777",
"Q 	c #4B4B4B",
"R 	c #7D7D7D",
"S 	c #525252",
"T 	c #313131",
"U 	c #6D6D6D",
"V 	c #AAAAAA",
"W 	c #A6A6A6",
"X 	c #8C8C8C",
"Y 	c #424242",
"Z 	c #464646",
"` 	c #4E4E4E",
" .	c #8B8B8B",
"..	c #303030",
"+.	c #656565",
"@.	c #515151",
"#.	c #484848",
"$.	c #707070",
"%.	c #9E9E9E",
"&.	c #828282",
"*.	c #ABABAB",
"=.	c #878787",
"-.	c #4D4D4D",
";.	c #858585",
">.	c #5A5A5A",
",.	c #8D8D8D",
"'.	c #5F5F5F",
").	c #333333",
"!.	c #B2B2B2",
"~.	c #939393",
"{.	c #7B7B7B",
"].	c #4A4A4A",
"^.	c #7F7F7F",
"/.	c #676767",
"(.	c #323232",
"_.	c #ACACAC",
":.	c #616161",
"<.	c #808080",
"[.	c #686868",
"}.	c #AFAFAF",
"|.	c #8A8A8A",
"1.	c #6C6C6C",
"2.	c #A5A5A5",
"3.	c #A7A7A7",
"4.	c #6A6A6A",
"5.	c #2A2A2A",
"                                                                                                                                ",
"                                                                                                                                ",
"                                                                                                                                ",
"                                                                                                                                ",
"                                                                                                                                ",
"                                                                                                                                ",
"                                                                                                                                ",
"                                                                                                                                ",
"                                                                                                                                ",
"                                                                                                                                ",
"                                                                                                                                ",
"                                                                                                                                ",
"                                                                                                                                ",
"                                                                                                                                ",
"                                                                                                                                ",
"                                                                                                                                ",
"                                                                                                                                ",
"                                                                                                                                ",
"                                                                                                                                ",
"                                                                                                  . + @ + . # $ % & *           ",
"                                                                                            = - ; > , ' ) ! ; ~ { ] ' ^         ",
"                                                                                          + / , ( _ ( : < [ } : | 1 : =         ",
"                                                        * 2                               @ 3 } [ [ [ [ [ [ [ [ [ 4 5 6         ",
"                    7 8 @ 9                   0 a b c = d e                             0 f : [ [ [ [ [ [ [ [ g h i             ",
"                j k ) l 4 m a e 6 . n c o p i q r s k                           t u k l v w | [ [ [ [ [ [ [ | ~ 7 x             ",
"              0 y z A h [ B z C D 3 ) ~ h E F G H I n                     0 8 J K } } [ h h [ [ [ [ [ [ [ } L b                 ",
"              @ | : [ [ [ [ | [ : [ M h [ | w m 5           N 6 O P c d 2 > Q 1 g [ [ [ [ [ [ [ [ [ [ [ h ! c t                 ",
"              R ! 4 S T [ [ [ [ [ [ [ [ [ A U V       W e X 3 s Q Y M Q h _ ( [ [ [ [ [ [ h : Z : | h } , p                     ",
"              8 k @ . P ` | : [ [ [ [ [ [ | L O 0 *  .f z ..M [ ( | [ | [ [ [ [ [ [ [ [ [ Z +.f U h @.+.7                       ",
"                      6 X k #.h [ [ [ [ [ [ : L 4 4 A B ( [ [ [ [ [ [ [ [ [ [ [ [ [ h _ F $.9   %.O - @                         ",
"                          W p , h [ [ [ [ [ [ [ | : [ [ [ [ [ [ [ [ [ [ [ [ [ [ g 1 E &.&                                       ",
"                          *.=.-.s [ [ [ [ [ [ [ [ [ [ [ [ [ [ [ [ [ [ [ [ | < A K j 9                                           ",
"                        o ; z A [ [ [ [ [ [ [ [ [ [ [ [ [ [ [ [ [ [ [ [ | Y ) J @                                               ",
"                        J ` h [ [ [ [ [ [ [ [ [ [ [ [ [ [ [ [ [ [ [ [ | A l J                                                   ",
"                        ;.A [ [ [ [ [ [ [ [ [ [ [ [ [ [ [ [ [ [ [ [ | L >.0                                                     ",
"                        o ( [ [ [ [ [ [ [ [ [ [ [ [ [ [ [ [ [ [ [ : : v 2 ,.                                                    ",
"                    5 i '.Y [ [ [ [ [ [ [ [ [ [ [ [ [ [ [ [ | ).).H c t                                                         ",
"                 .' D r : ( [ [ [ [ [ [ [ [ [ [ [ [ [ [ h B s ; c t                                                             ",
"              n $.s A ( [ [ [ [ [ [ [ [ [ [ [ [ [ [ [ [ E m 5 9                                                                 ",
"            %.=.F | [ [ [ [ [ [ [ [ [ [ [ [ [ [ [ [ [ : +.0           !.W                                                       ",
"          e / h M [ [ [ [ [ [ [ [ [ [ [ [ [ [ [ [ [ [ F J       ~.V *.O ; %                                                     ",
"        ,.: _ [ [ [ [ [ [ ( M [ | [ [ [ [ [ [ [ [ [ [ T J o {.] H +.= e x                                                       ",
"        * ( | [ : : [ : M #.v v M [ [ [ [ [ [ [ [ [ [ M ].! -.[ ~ ^.                                                            ",
"        n /.B (.S /.z , q f j _.{ : ( M g | [ [ [ [ [ [ | G :.> <.                                                              ",
"          o ' @ 6 7 % &.@       7 R ] ] R h [ [ [ [ [ M } [. .                                                                  ",
"                                  8   }.|.r ( [ [ | h @.^.$                                                                     ",
"                                        O } [ [ [ C ) - @                                                                       ",
"                                      % 1.| [ [ [ 4 0                                                                           ",
"                                      # H : [ | M m                                                                             ",
"                                      * 1 [ [ < 3 2.                                                                            ",
"                                     .'.[ [ [ @.,.                                                                              ",
"                                3.d H z | M } U %                                                                               ",
"                                  n 4.5.L y ' ^                                                                                 ",
"                                    8 i i ;.                                                                                    ",
"                                                                                                                                ",
"                                                                                                                                ",
"                                                                                                                                ",
"                                                                                                                                ",
"                                                                                                                                ",
"                                                                                                                                ",
"                                                                                                                                ",
"                                                                                                                                ",
"                                                                                                                                ",
"                                                                                                                                "};
