/* XPM */
static char * 10_xpm[] = {
"64 64 114 2",
"  	c None",
". 	c #898989",
"+ 	c #787878",
"@ 	c #747474",
"# 	c #7E7E7E",
"$ 	c #8A8A8A",
"% 	c #6F6F6F",
"& 	c #5A5A5A",
"* 	c #505050",
"= 	c #676767",
"- 	c #8F8F8F",
"; 	c #7F7F7F",
"> 	c #646464",
", 	c #404040",
"' 	c #343434",
") 	c #585858",
"! 	c #737373",
"~ 	c #525252",
"{ 	c #313131",
"] 	c #464646",
"^ 	c #6B6B6B",
"/ 	c #878787",
"( 	c #868686",
"_ 	c #838383",
": 	c #686868",
"< 	c #3F3F3F",
"[ 	c #2C2C2C",
"} 	c #4B4B4B",
"| 	c #707070",
"1 	c #8B8B8B",
"2 	c #5D5D5D",
"3 	c #6A6A6A",
"4 	c #6D6D6D",
"5 	c #424242",
"6 	c #363636",
"7 	c #474747",
"8 	c #6E6E6E",
"9 	c #808080",
"0 	c #777777",
"a 	c #5F5F5F",
"b 	c #444444",
"c 	c #272727",
"d 	c #848484",
"e 	c #5E5E5E",
"f 	c #3A3A3A",
"g 	c #414141",
"h 	c #3D3D3D",
"i 	c #2A2A2A",
"j 	c #333333",
"k 	c #666666",
"l 	c #797979",
"m 	c #545454",
"n 	c #3C3C3C",
"o 	c #383838",
"p 	c #9E9E9E",
"q 	c #717171",
"r 	c #454545",
"s 	c #3B3B3B",
"t 	c #555555",
"u 	c #767676",
"v 	c #8C8C8C",
"w 	c #999999",
"x 	c #7B7B7B",
"y 	c #535353",
"z 	c #595959",
"A 	c #7A7A7A",
"B 	c #7C7C7C",
"C 	c #626262",
"D 	c #757575",
"E 	c #484848",
"F 	c #393939",
"G 	c #3E3E3E",
"H 	c #4C4C4C",
"I 	c #858585",
"J 	c #696969",
"K 	c #494949",
"L 	c #373737",
"M 	c #919191",
"N 	c #5C5C5C",
"O 	c #4F4F4F",
"P 	c #565656",
"Q 	c #656565",
"R 	c #4A4A4A",
"S 	c #616161",
"T 	c #606060",
"U 	c #6C6C6C",
"V 	c #727272",
"W 	c #515151",
"X 	c #4E4E4E",
"Y 	c #979797",
"Z 	c #7D7D7D",
"` 	c #636363",
" .	c #8D8D8D",
"..	c #9D9D9D",
"+.	c #353535",
"@.	c #929292",
"#.	c #949494",
"$.	c #939393",
"%.	c #8E8E8E",
"&.	c #9F9F9F",
"*.	c #9A9A9A",
"=.	c #909090",
"-.	c #969696",
";.	c #434343",
">.	c #4D4D4D",
",.	c #989898",
"'.	c #575757",
").	c #828282",
"!.	c #A8A8A8",
"~.	c #818181",
"{.	c #5B5B5B",
"].	c #959595",
"^.	c #9B9B9B",
"/.	c #323232",
"                                                                                                                                ",
"                                                                                                                                ",
"                                                                                                                                ",
"                                                                                                                                ",
"                                                                                                                                ",
"                                                                                                                                ",
"                                                                      .                                                         ",
"                                                                    + @ # $                                                     ",
"                                                                  % & * = # -                                                   ",
"                                                                ; > , ' )                                                       ",
"                                                                ! ~ { ] ^                         - . / (                       ",
"                                                              _ : < [ } | 1                     - _ ^ 2 3 _                     ",
"                                                              $ 4 5 6 7 8 1                 9 0 4 a b c & d                     ",
"                                                              $ e f 6 g ^ 1               8 e ) } h i j k $                     ",
"                                                              l m n o , k 1 p   9     _ q 2 r o s o s t u v                     ",
"                                                            w x y f h h z A B C > : D ! a E F n G n H | v                       ",
"                                                            I J K n h n ] & ) E r b } m r n h < s L ~ @                         ",
"                                                            | ~ f n , < h , G n o f s n h G < < h r z u                         ",
"                                                          M k b F < , < < G s < , < < < < , h h 7 N %                           ",
"                                                          4 O f n < g g , , , , , , , , , , s 5 P k                             ",
"                                                        Q t 7 5 n F g g , , , , , , , , , < h R 8                               ",
"                                                      % S T U V W h < g , , , , , , , , , < f X ; Y                             ",
"                                                    Z ` e q - v = b n < , , , , , , , , , , L ] V  .                            ",
"                                                  ..$ u 3     1 k r f < , , , , , , , , , , F +.2 9                             ",
"                                                @.#.$.@.      + N 5 n , , , , , , , , , , < F E ^ /                             ",
"                                                %.M         1 V W G G , , , , , , , , , , G G z ( &.                            ",
"                                                M *.      / | P < h < , , , , , , , , , , < < y x =.=.v     D Z /               ",
"                                                        #.l t F 6 < , , , , , , , , , , , < h b z : U U % q C : #               ",
"                                                      -.Z z s L h , , , , , , , , , , , , , G n G g b 7 K } n ~ 0 =.            ",
"                                                    w ( 2 n o G , , , , , < h h h s h , , , < G s F 6 +.j +.;.y @               ",
"                                                    _ Q 5 L G , , , , g g < f G r G n h G G n n n o o h , X > |                 ",
"                                                    D W o G , , , g , G o , O S 8 : >.h f h g ;.y 2 t S J q 0                   ",
"                                                  9 > g F , , , , , < o o * 4 d ,. .^ ;.+.b P ` V 9 ( 9 $ $.                    ",
"                                                  u t s n , , , , G 6 n '.V ).  !.v = R H S % ).M                               ",
"                                                ~.: R h < g , < G L s & B  .      V {.P ^ v (                                   ",
"                                              I 3 * n < , G h f L , e Z =.      k T C ^                                         ",
"                                            =.0 W o F < n o n ] X > _ *.      . q > =                                           ",
"                                          1 % ~ s h < h G } & Q V ).].      ^.@.( Z                                             ",
"                                        w B O { L G +.6 O J B ~.          ].M @.                                                ",
"                                      ,.# a s f , G f * 3 B               ].@.                                                  ",
"                                  =.=.).a h s h +.j y 0 $                                                                       ",
"                              q V ! q C 7 L n h f t q $                                                                         ",
"                            # Q ~ K r b < F G ;.z # #.                                                                          ",
"                            l t s o n n h < >.T D @.                                                                            ",
"                          I 3 r +.h , , h 5 e B @.                                                                              ",
"                          x & n h g , , f ] 8  .                                                                                ",
"                        ( k ] f < g , h 6 K u -.                                                                                ",
"                        ; z F f < < n F h y !                                                                                   ",
"                      Y + X s G s f h 7 z J !                                                                                   ",
"                      ~.a f /.f s 7 P 4 0 x                                                                                     ",
"                      | K +.h O ` 8 ! 1 $.                                                                                      ",
"                    M | } m > ! d @.                                                                                            ",
"                    %.A U q $ ,.                                                                                                ",
"                                                                                                                                ",
"                                                                                                                                ",
"                                                                                                                                ",
"                                                                                                                                ",
"                                                                                                                                ",
"                                                                                                                                ",
"                                                                                                                                ",
"                                                                                                                                ",
"                                                                                                                                ",
"                                                                                                                                ",
"                                                                                                                                "};
