/* XPM */
static char * 11_xpm[] = {
"64 64 112 2",
"  	c None",
". 	c #979797",
"+ 	c #8C8C8C",
"@ 	c #838383",
"# 	c #818181",
"$ 	c #878787",
"% 	c #727272",
"& 	c #5E5E5E",
"* 	c #6B6B6B",
"= 	c #919191",
"- 	c #7C7C7C",
"; 	c #555555",
"> 	c #282828",
", 	c #575757",
"' 	c #9B9B9B",
") 	c #7F7F7F",
"! 	c #858585",
"~ 	c #828282",
"{ 	c #777777",
"] 	c #606060",
"^ 	c #3D3D3D",
"/ 	c #252525",
"( 	c #7B7B7B",
"_ 	c #6D6D6D",
": 	c #626262",
"< 	c #6E6E6E",
"[ 	c #7E7E7E",
"} 	c #757575",
"| 	c #454545",
"1 	c #343434",
"2 	c #3A3A3A",
"3 	c #848484",
"4 	c #525252",
"5 	c #3C3C3C",
"6 	c #6F6F6F",
"7 	c #444444",
"8 	c #3B3B3B",
"9 	c #393939",
"0 	c #696969",
"a 	c #6C6C6C",
"b 	c #474747",
"c 	c #353535",
"d 	c #5C5C5C",
"e 	c #787878",
"f 	c #656565",
"g 	c #494949",
"h 	c #383838",
"i 	c #404040",
"j 	c #5F5F5F",
"k 	c #7A7A7A",
"l 	c #313131",
"m 	c #737373",
"n 	c #767676",
"o 	c #414141",
"p 	c #3E3E3E",
"q 	c #585858",
"r 	c #6A6A6A",
"s 	c #2F2F2F",
"t 	c #424242",
"u 	c #4F4F4F",
"v 	c #3F3F3F",
"w 	c #4C4C4C",
"x 	c #666666",
"y 	c #565656",
"z 	c #363636",
"A 	c #505050",
"B 	c #646464",
"C 	c #545454",
"D 	c #595959",
"E 	c #373737",
"F 	c #484848",
"G 	c #5D5D5D",
"H 	c #464646",
"I 	c #636363",
"J 	c #8D8D8D",
"K 	c #929292",
"L 	c #707070",
"M 	c #4A4A4A",
"N 	c #5A5A5A",
"O 	c #868686",
"P 	c #676767",
"Q 	c #8E8E8E",
"R 	c #747474",
"S 	c #808080",
"T 	c #9D9D9D",
"U 	c #5B5B5B",
"V 	c #4D4D4D",
"W 	c #434343",
"X 	c #4E4E4E",
"Y 	c #616161",
"Z 	c #909090",
"` 	c #717171",
" .	c #535353",
"..	c #8F8F8F",
"+.	c #7D7D7D",
"@.	c #898989",
"#.	c #A0A0A0",
"$.	c #8A8A8A",
"%.	c #969696",
"&.	c #949494",
"*.	c #9C9C9C",
"=.	c #9E9E9E",
"-.	c #515151",
";.	c #4B4B4B",
">.	c #888888",
",.	c #686868",
"'.	c #939393",
").	c #797979",
"!.	c #9A9A9A",
"~.	c #333333",
"{.	c #8B8B8B",
"].	c #959595",
"                                                                                                                                ",
"                                                                                                                                ",
"                                                                                                                                ",
"                                                                                                                                ",
"                                                                                . + @ #                                         ",
"                                                                                $ % & * $                                       ",
"                                                                              = - ; > , @ '                                     ",
"                                                  # ) ! +                   ~ { ] ^ / ; -                                       ",
"                                                ( _ : < [                 @ } & | 1 2 & 3                                       ",
"                                                < 4 5 ,                   6 , 7 8 9 7 0 !                                       ",
"                                                a b c d e                 f g h ^ 8 i j k                                       ",
"                                              ! a 7 l 4 m +             n d o 2 p 2 p q n                                       ",
"                                                r o s t f ~       [ e k _ u 5 p v ^ w x e                                       ",
"                                                } y z h A m = . _ B d C A t ^ v ^ i 4 x                                         ",
"                                                3 D E E v & ( k d F p 5 8 5 v i 5 o d }                                         ",
"                                                $ G o 9 2 H q D g 5 h ^ v i i i 5 t I $                                         ",
"                                                ! a F 2 ^ ^ v i 2 p i i i i i i p ^ C ( J                                       ",
"                                                K L M 5 v i p p ^ v i i i i i i i E ^ N }             3 $                       ",
"                                                O P 7 9 v i i i i i i i i i i i o ^ c | _ Q         R L e 3                     ",
"                                                S : o 2 i o o i i i i i i i i i i v 9 w - ' T = @ e * ; G k                     ",
"                                                K : p 8 8 p o o i i i i i i i i i v 8 g * 3 @ m P U V h w <                     ",
"                                                } , v W i 8 v i i i i i i i i i i i p i w N D X W 8 1 W ] R                     ",
"                                                I C & % & F 5 ^ i i i i i i i i i i v ^ ^ p 8 9 c 1 5 , L                       ",
"                                                I Y k Z - D p 8 i i i i i i i i i i i v p ^ 2 1 E g & m ~                       ",
"                                              ` ] I -   @ j t ^ i i i i i i i i i i i i p 5 p M  .x k ..                        ",
"                                              +._ r     ( ] 7 ^ v i i i i i i p ^ v v p ^ ^ M f +.@.                            ",
"                                            #.Z @.J     ~ j v p i i i i i p ^ 8 9 5 5 8 p X : - $.                              ",
"                                            %.&.%.    + L V E p i i i i p 2 5 V y w i 1 W & e Z                                 ",
"                                            ..=       $ x p E v i i i o v v y % @ e , o ; e ~                                   ",
"                                            Q %.    *.@ , z 5 i i i o ^ 5 X 6 Z =.$ ] -.* Z                                     ",
"                                                    %.R H E p i i o v h 9 U (     +.& j `                                       ",
"                                                    Z r ^ 9 i i i o v E ;.` $     P ] P                                         ",
"                                                    # N 9 p i i i i 9 2 : !     k r B *                                         ",
"                                                    ( , 2 ^ i i i p z H % Z     Q # [                                           ",
"                                                    { y 9 5 i i v 2 h G >.      . =                                             ",
"                                                    e ; 5 p o v 8 8 V m K     %.= K                                             ",
"                                                    } y v v v 9 5 X ,.~       %.'.'.                                            ",
"                                                  $.L X 2 v 5 ^ -.P ).                                                          ",
"                                                  ! : v h p 5 w a S                                                             ",
"                                                !.@ U 8 p 9 9 D n                                                               ",
"                                                Q _ | E p c | * !                                                               ",
"                                                $ U ~.2 v 8 G ~                                                                 ",
"                                              #.@ ; E 5 1 p 0 {.                                                                ",
"                                              ].% H 8 ^ c y S !.                                                                ",
"                                            !.@.: 5 9 ^ | a ..                                                                  ",
"                                          ..@.} ; ^ 9 t , n .                                                                   ",
"                                          } r ; W p ^ w 0 @.                                                                    ",
"                                        a N | 5 5 ^ ^ X ` Z                                                                     ",
"                                        a w z 8 i i 8 b ` '.                                                                    ",
"                                      $.` b c v i i h p f @                                                                     ",
"                                      @._ F 8 i o v h v G R                                                                     ",
"                                      >._ b 2 i i 5 8 -.r                                                                       ",
"                                      $ f i 9 p 8 8 V r (                                                                       ",
"                                      >.P W 2 ^ h b Y @ &.                                                                      ",
"                                      Z L 7 1 8 ;.x {                                                                           ",
"                                      Z ,.^ l b ,.! %.                                                                          ",
"                                      S : p b B ) Z                                                                             ",
"                                      >.* ;.] ~ !.                                                                              ",
"                                      &.+.6 }                                                                                   ",
"                                        @.3                                                                                     ",
"                                                                                                                                ",
"                                                                                                                                ",
"                                                                                                                                ",
"                                                                                                                                "};
