/* XPM */
static char * 12_xpm[] = {
"64 64 104 2",
"  	c None",
". 	c #8D8D8D",
"+ 	c #808080",
"@ 	c #7A7A7A",
"# 	c #8B8B8B",
"$ 	c #939393",
"% 	c #7D7D7D",
"& 	c #5F5F5F",
"* 	c #606060",
"= 	c #7E7E7E",
"- 	c #949494",
"; 	c #8A8A8A",
"> 	c #707070",
", 	c #3D3D3D",
"' 	c #383838",
") 	c #676767",
"! 	c #838383",
"~ 	c #6A6A6A",
"{ 	c #3A3A3A",
"] 	c #2C2C2C",
"^ 	c #5B5B5B",
"/ 	c #787878",
"( 	c #595959",
"_ 	c #363636",
": 	c #6B6B6B",
"< 	c #4B4B4B",
"[ 	c #393939",
"} 	c #3B3B3B",
"| 	c #4C4C4C",
"1 	c #666666",
"2 	c #7B7B7B",
"3 	c #777777",
"4 	c #585858",
"5 	c #3F3F3F",
"6 	c #3C3C3C",
"7 	c #535353",
"8 	c #6F6F6F",
"9 	c #6D6D6D",
"0 	c #515151",
"a 	c #6C6C6C",
"b 	c #8E8E8E",
"c 	c #545454",
"d 	c #505050",
"e 	c #656565",
"f 	c #8C8C8C",
"g 	c #868686",
"h 	c #7F7F7F",
"i 	c #7C7C7C",
"j 	c #727272",
"k 	c #3E3E3E",
"l 	c #696969",
"m 	c #5D5D5D",
"n 	c #646464",
"o 	c #494949",
"p 	c #898989",
"q 	c #959595",
"r 	c #737373",
"s 	c #636363",
"t 	c #434343",
"u 	c #404040",
"v 	c #797979",
"w 	c #333333",
"x 	c #454545",
"y 	c #929292",
"z 	c #4E4E4E",
"A 	c #6E6E6E",
"B 	c #5E5E5E",
"C 	c #343434",
"D 	c #909090",
"E 	c #4A4A4A",
"F 	c #353535",
"G 	c #424242",
"H 	c #373737",
"I 	c #757575",
"J 	c #828282",
"K 	c #747474",
"L 	c #5C5C5C",
"M 	c #414141",
"N 	c #474747",
"O 	c #464646",
"P 	c #818181",
"Q 	c #767676",
"R 	c #323232",
"S 	c #4D4D4D",
"T 	c #525252",
"U 	c #484848",
"V 	c #555555",
"W 	c #848484",
"X 	c #4F4F4F",
"Y 	c #565656",
"Z 	c #616161",
"` 	c #969696",
" .	c #8F8F8F",
"..	c #686868",
"+.	c #878787",
"@.	c #9A9A9A",
"#.	c #717171",
"$.	c #858585",
"%.	c #626262",
"&.	c #989898",
"*.	c #979797",
"=.	c #5A5A5A",
"-.	c #444444",
";.	c #919191",
"                                                                                                                                ",
"                                                                                                                                ",
"                                                            . + @ #                                                             ",
"                                                          $ % & * = -                                                           ",
"                                                          ; > , ' ) !                                                           ",
"                                                          ; ~ { ] ^ !                                                           ",
"                                                          / ( ' _ ( @                                                           ",
"                                                        + : < [ } | 1 2                                                         ",
"                                                        3 4 5 6 } 6 7 8                                                         ",
"                                                        9 0 { 6 6 6 7 a                                                         ",
"                                    . b                 a c 6 6 5 5 d e                 f ;                                     ",
"                                g h i h                 j c 6 k k k d l                 = i h f                                 ",
"                                @ ) m n               + 8 d k 5 k 6 o ~ p q             a * ) @                                 ",
"                                > 0 ' ^ 3           r s 0 t , u u 6 5 7 > 2 +         v e t < a                                 ",
"                                8 d w < ) = f     a m o 6 { 5 u u 5 } { x 4 r -   y 2 e z ' 7 A                                 ",
"                                / B [ C < n @ D b 1 E [ { 5 u u u u u { F G r q $ % n < H ' 4 I                                 ",
"                                J l t w _ x m r K L t } 5 u u u u u M u { 5 m K I & N ' C O l P                                 ",
"                                  Q n N R ' M S T U { k u u u u u u u u k 6 x | S G ' R k L i -                                 ",
"                                  # % V 6 [ { , , , , 5 u u u u u u u u u 5 k , 6 } ' 6 d 8 W                                   ",
"                                    # ~ d , } 5 u 5 u u u u u u u u u u u u 5 k k 6 k T j p                                     ",
"                                      % ) x } 5 u M u u u u u u u u u u u u u u k } M & %                                       ",
"                                      $ > < { k M M M M u u u u u u u u u u u 5 , k X ~ p                                       ",
"                                        K Y } { 6 , u u u u u u u u u u 5 k k , } k V K                                         ",
"                                        J Z 5 { , k k 6 k u u u u u u u 6 H , , _ 6 & =                                         ",
"                                        ` : N z Z 4 E } 6 u u u u u u k , U Y L z x e  .                                        ",
"                                          n 7 ..+.% & x , k u u u u k { t 1 J J n 7 )                                           ",
"                                          s B I y   A c 5 k u u u u 5 6 7 2 @.` #.L 1                                           ",
"                                          ) & l     v & 5 k u u u M 5 u ^ %     A * ..                                          ",
"                                          #.1 ~     $.%.k [ u u u M } { ^ =     ..n a                                           ",
"                                          W + p     P Z { [ u u u u [ { s J     = i P                                           ",
"                                          @.y q     +.n } { u u M M } 5 ..#     $  .                                            ",
"                                          ` $ &.    . l , [ u u u u [ } l f     *.y                                             ",
"                                           .D &.    D a , [ u u u u ' k 9 y     q y $                                           ",
"                                             .      q j x { 5 u u 5 ' M A y     *.q                                             ",
"                                                    D K S ' , u u k [ < K  .                                                    ",
"                                                      2 ( 6 } u u } k =.3                                                       ",
"                                                      h e U } 5 k [ o ) =                                                       ",
"                                                        r c 5 5 , 6 =./                                                         ",
"                                                        v L u 6 , M L /                                                         ",
"                                                        + * 6 [ } [ B h                                                         ",
"                                                        $.Z 5 , ' } n g                                                         ",
"                                                        f l 5 [ 6 u ) ;                                                         ",
"                                                        p %._ { } ' e f                                                         ",
"                                                        # s 6 [ _ , :  .                                                        ",
"                                                        - j -.{ 6 G 9 ;.                                                        ",
"                                                        *.#.t [ 6 U : f                                                         ",
"                                                        - j o ' } z 8 D                                                         ",
"                                                        . #.| , , S a f                                                         ",
"                                                      b h & t , 6 t B P y                                                       ",
"                                                      / e U } k k } x 1 i                                                       ",
"                                                      l 0 ' } u u [ ' 7 :                                                       ",
"                                                      A 0 H } u M 6 } V >                                                       ",
"                                                      % %.k } M M 6 M %.i                                                       ",
"                                                      +.a o } 5 k [ U A .                                                       ",
"                                                        Q Y { } 6 [ T #.                                                        ",
"                                                        h B 5 { } -...g                                                         ",
"                                                        ; A X _ _ 0 / ;.                                                        ",
"                                                          ! & F ' m +                                                           ",
"                                                           .1 u N 8 y                                                           ",
"                                                            8 V 7 r                                                             ",
"                                                            +.I 8 i                                                             ",
"                                                            *.+.W                                                               ",
"                                                                                                                                ",
"                                                                                                                                "};
