/* XPM */
static char * 13_xpm[] = {
"64 64 106 2",
"  	c None",
". 	c #7F7F7F",
"+ 	c #7E7E7E",
"@ 	c #8A8A8A",
"# 	c #969696",
"$ 	c #6F6F6F",
"% 	c #5F5F5F",
"& 	c #717171",
"* 	c #848484",
"= 	c #959595",
"- 	c #5A5A5A",
"; 	c #333333",
"> 	c #494949",
", 	c #868686",
"' 	c #636363",
") 	c #303030",
"! 	c #5B5B5B",
"~ 	c #797979",
"{ 	c #8B8B8B",
"] 	c #696969",
"^ 	c #3F3F3F",
"/ 	c #5D5D5D",
"( 	c #767676",
"_ 	c #7C7C7C",
": 	c #707070",
"< 	c #656565",
"[ 	c #6C6C6C",
"} 	c #727272",
"| 	c #676767",
"1 	c #444444",
"2 	c #383838",
"3 	c #3D3D3D",
"4 	c #414141",
"5 	c #555555",
"6 	c #6D6D6D",
"7 	c #646464",
"8 	c #464646",
"9 	c #4E4E4E",
"0 	c #424242",
"a 	c #3C3C3C",
"b 	c #3B3B3B",
"c 	c #3A3A3A",
"d 	c #4C4C4C",
"e 	c #626262",
"f 	c #7A7A7A",
"g 	c #616161",
"h 	c #4B4B4B",
"i 	c #6A6A6A",
"j 	c #7B7B7B",
"k 	c #575757",
"l 	c #989898",
"m 	c #888888",
"n 	c #525252",
"o 	c #373737",
"p 	c #434343",
"q 	c #686868",
"r 	c #808080",
"s 	c #666666",
"t 	c #3E3E3E",
"u 	c #818181",
"v 	c #838383",
"w 	c #878787",
"x 	c #8E8E8E",
"y 	c #585858",
"z 	c #5C5C5C",
"A 	c #777777",
"B 	c #979797",
"C 	c #949494",
"D 	c #393939",
"E 	c #4D4D4D",
"F 	c #747474",
"G 	c #474747",
"H 	c #404040",
"I 	c #353535",
"J 	c #515151",
"K 	c #484848",
"L 	c #535353",
"M 	c #6B6B6B",
"N 	c #898989",
"O 	c #828282",
"P 	c #787878",
"Q 	c #6E6E6E",
"R 	c #4F4F4F",
"S 	c #4A4A4A",
"T 	c #8C8C8C",
"U 	c #939393",
"V 	c #454545",
"W 	c #323232",
"X 	c #363636",
"Y 	c #5E5E5E",
"Z 	c #606060",
"` 	c #565656",
" .	c #737373",
"..	c #343434",
"+.	c #8D8D8D",
"@.	c #757575",
"#.	c #909090",
"$.	c #9F9F9F",
"%.	c #7D7D7D",
"&.	c #858585",
"*.	c #545454",
"=.	c #929292",
"-.	c #999999",
";.	c #8F8F8F",
">.	c #505050",
",.	c #2F2F2F",
"                                                                                                                                ",
"                                                                                                                                ",
"                                                                                                                                ",
"                                                                                                                                ",
"                                        . + @ #                                                                                 ",
"                                      @ $ % & *                                                                                 ",
"                                    = * - ; > & ,                                                                               ",
"                                      * ' ; ) ! ~                     @ * . ,                                                   ",
"                                      { ] ^ ; > / $ (                 _ : < [ }                                                 ",
"                                      _ | 1 2 3 4 5 6                   7 8 9 [                                                 ",
"                                      + 7 0 a b c d e                 f g a h i                                                 ",
"                                      j g 0 c 3 3 1 k i   l         m : n o p q r                                               ",
"                                        s h c 3 ^ t h < u m r v     w 7 1 ; 1 6 x                                               ",
"                                        [ y ^ 3 t a t h z e e A B C ( n D ; E } m                                               ",
"                                        F s G 3 H ^ a a c c H s . f e 1 I o J A                                                 ",
"                                        . | K 3 H H H ^ a o o K k L 8 a 2 0 s ,                                                 ",
"                                        6 J t 3 H H H H 4 H 3 a H ^ b b b > M r                                                 ",
"                      { ,             : / 0 D ^ H H H H H H H ^ ^ t t 3 b G q N                                                 ",
"                    O P Q             i R D b H H H H H H H H H H H H t a S |                                                   ",
"                  * ~ % 9 e ( u T   U & 9 a t H H H H H H H H H H H H 3 b V 7 +                                                 ",
"                    } n W > z i } r r M E c ^ H H H H H H H H H H ^ t a X b Y N                                                 ",
"                    & Z 0 ; 2 V E y ! n p a ^ H H H H H H H H H ^ b c 4 V p `  .                                                ",
"                      F / b ..W o a ^ t a t H H H H H H H H H H t c V z i z ` |                                                 ",
"                      O } Z n 3 X D b ^ H H H H H H H H H H H H t ^ z u +.@.% 7                                                 ",
"                          . @.` G 3 b t H 4 4 4 H H H H H H H ^ b ^ | #.$.%.] e M                                               ",
"                          x { ( | n 3 b ^ ^ t ^ 3 t H H H H H ^ a 0 7 r     q [ %.                                              ",
"                                &.| S c c D b H 3 c t ^ H H H H ^ H y j     _ v N                                               ",
"                                B @.g 8 D 1 *.` E H 3 t H H H 4 t o h } &.    C =.                                              ",
"                                    _ ! p y _ %.| ` p 3 ^ H H 4 ^ 2 H ] {     B U =.                                            ",
"                                    # [ n 7 N     6 L c c H H H 4 b c z O       = C                                             ",
"                                        % < P     u e ^ 2 ^ H 4 4 3 X S A C     B                                               ",
"                                        < % s     , & d X a H H H H 2 a | +.                                                    ",
"                                        6 ] & O     u % c D H H H H c D z u                                                     ",
"                                          r , =.    x F S X 3 H H H 3 a k A                                                     ",
"                                          l = #       w g 3 D t H H a a y P                                                     ",
"                                            C C -.    = ( J b c t H b t z ~                                                     ",
"                                            ;.;.      U v [ E a b ^ 3 a - (                                                     ",
"                                                          %.< R H t 3 3 R : v                                                   ",
"                                                            @.q E a c c t < ,                                                   ",
"                                                              P z a c D o ! u                                                   ",
"                                                              v 6 S b c b > & ;.                                                ",
"                                                                u % D c b o 7 {                                                 ",
"                                                                T ] t 2 X X ` . =.                                              ",
"                                                                +.j L c D 3 > [ T                                               ",
"                                                                  ;.& 8 D c V ' &.                                              ",
"                                                                  -.O y a o H 5 & N =.                                          ",
"                                                                    ;.M > 3 a p 5 M ~                                           ",
"                                                                    #.( >.t a a a G / [                                         ",
"                                                                    { & h b ^ ^ D o >.Q                                         ",
"                                                                    u 7 4 c ^ 4 t c 9 & m                                       ",
"                                                                    : z ^ X 3 4 H b > : x                                       ",
"                                                                      q 9 D b H ^ 2 V ]                                         ",
"                                                                      j i d 3 a 3 D G $ {                                       ",
"                                                                      m . | d 2 c b K } ;.                                      ",
"                                                                          f Z 8 c ; 8 $ *                                       ",
"                                                                          , _ ' S ,.0 $ U                                       ",
"                                                                              O ' ^ 1 i                                         ",
"                                                                              =.~ / n ] _                                       ",
"                                                                                  %.F ~                                         ",
"                                                                                  U T ,                                         ",
"                                                                                                                                ",
"                                                                                                                                ",
"                                                                                                                                ",
"                                                                                                                                "};
