/* XPM */
static char * 14_xpm[] = {
"64 64 110 2",
"  	c None",
". 	c #8A8A8A",
"+ 	c #8C8C8C",
"@ 	c #878787",
"# 	c #7E7E7E",
"$ 	c #797979",
"% 	c #717171",
"& 	c #898989",
"* 	c #6B6B6B",
"= 	c #575757",
"- 	c #6D6D6D",
"; 	c #656565",
"> 	c #434343",
", 	c #464646",
"' 	c #636363",
") 	c #767676",
"! 	c #7F7F7F",
"~ 	c #848484",
"{ 	c #6F6F6F",
"] 	c #4B4B4B",
"^ 	c #383838",
"/ 	c #505050",
"( 	c #737373",
"_ 	c #8F8F8F",
": 	c #828282",
"< 	c #6E6E6E",
"[ 	c #5F5F5F",
"} 	c #676767",
"| 	c #787878",
"1 	c #858585",
"2 	c #343434",
"3 	c #606060",
"4 	c #333333",
"5 	c #373737",
"6 	c #585858",
"7 	c #707070",
"8 	c #727272",
"9 	c #747474",
"0 	c #4A4A4A",
"a 	c #323232",
"b 	c #3F3F3F",
"c 	c #7C7C7C",
"d 	c #484848",
"e 	c #2A2A2A",
"f 	c #3B3B3B",
"g 	c #4E4E4E",
"h 	c #555555",
"i 	c #5D5D5D",
"j 	c #6C6C6C",
"k 	c #474747",
"l 	c #393939",
"m 	c #5A5A5A",
"n 	c #8B8B8B",
"o 	c #838383",
"p 	c #626262",
"q 	c #3E3E3E",
"r 	c #363636",
"s 	c #3D3D3D",
"t 	c #3A3A3A",
"u 	c #494949",
"v 	c #5C5C5C",
"w 	c #949494",
"x 	c #9A9A9A",
"y 	c #8E8E8E",
"z 	c #696969",
"A 	c #454545",
"B 	c #5E5E5E",
"C 	c #7D7D7D",
"D 	c #616161",
"E 	c #414141",
"F 	c #565656",
"G 	c #757575",
"H 	c #595959",
"I 	c #444444",
"J 	c #4D4D4D",
"K 	c #535353",
"L 	c #3C3C3C",
"M 	c #5B5B5B",
"N 	c #7A7A7A",
"O 	c #404040",
"P 	c #424242",
"Q 	c #4F4F4F",
"R 	c #6A6A6A",
"S 	c #666666",
"T 	c #686868",
"U 	c #888888",
"V 	c #646464",
"W 	c #A1A1A1",
"X 	c #4C4C4C",
"Y 	c #818181",
"Z 	c #868686",
"` 	c #909090",
" .	c #929292",
"..	c #979797",
"+.	c #525252",
"@.	c #969696",
"#.	c #939393",
"$.	c #959595",
"%.	c #2E2E2E",
"&.	c #313131",
"*.	c #353535",
"=.	c #545454",
"-.	c #777777",
";.	c #515151",
">.	c #919191",
",.	c #999999",
"'.	c #989898",
").	c #8D8D8D",
"!.	c #808080",
"~.	c #303030",
"                                                                                                                                ",
"                                                                                                                                ",
"                                                                                                                                ",
"                                                                                                                                ",
"                                                                                                                                ",
"                                                                                                                                ",
"                                                        .                                                                       ",
"                                                  + @ # $ %                                                                     ",
"                                                  & # * = = -                                                                   ",
"                                                      ; > , ' )                                                                 ",
"                      ! ~ & @                         { ] ^ / ( _                                                               ",
"                    : < [ } | 1                       < ] 2 > * @                                                               ",
"                    @ 3 4 5 6 7 8 9                 . < 0 a b ' c                                                               ",
"                    . < d e f g h i j               + { k 4 l m :                                                               ",
"                    n o p q r s t u v ;   w . ! ~ x y z A r f B C                                                               ",
"                      . j g f f t b u 6 j C ( D < o | m E l s F 8 n                                                             ",
"                        G H s t s b q I J K 0 L J M h A f f f , ; N                                                             ",
"                        c p d f L q s L s f r r ^ b O s s q f P m { :                                                           ",
"                          * B 0 L s O b b b q b q s b b O b s L , ' &                                                           ",
"                            j D d q b O O O E O O O O O O O s r 5 Q R                                                           ",
"                              % h b q O O O O O O O O O O b L s , g H }                                                         ",
"                              ( Q f q O O O O O O O O O b f L / R z [ p S                                                       ",
"                              T 0 l q O O O O O O O O O b t > z & U { S z c                                                     ",
"                              V k 5 q O O O O O O O O O b L d 7 w W   T ( ~                                                     ",
"                              z X L q O O O O O O O O O O L b V Y       Z `  .                                                  ",
"                n           ..N H O L O O O O O O O O O b L L +.- #       @.#.#.                                                ",
"              n !       . U U | m P s O O O O O O O O O O b q O +.8 @       $.$.                                                ",
"              C T m z { { * z m u s q O O O O O O O O O O O b r L m C n       ..                                                ",
"            ~ ) F l d X ] A I b L b O E E E q q b b O O O E O L ^ E [ # w                                                       ",
"              G v P r %.&.a 2 l f b O E b q L t L s b O O O O E L *.O p o _                                                     ",
"                j ; =.E A q f f L f q s l b k d > b s s O O O E O f r I T Y                                                     ",
"                  c ( R - p H F X s l l b h T } i =.P 5 f O O O O O t l K 8                                                     ",
"                      ! Z Z -.c T h , f d 7 @ Y 7 8 6 q r L O O O O q t k } c                                                   ",
"                               .Y % z ;.X j .     1 8 6 q r L O O O b f b v -.                                                  ",
"                                    y j 6 ' 8       o $ i O *.t q b O L t Q R N                                                 ",
"                                        D p D *       y # p k t l f q b L O ;.j Z                                               ",
"                                          R z $ _       >.Z R h I s s q L t ^ =.| U                                             ",
"                                            C . w ..      #.o G ; = J O l l r b F 9 _                                           ",
"                                              ,.$.w '.          N % R +.f t t f 5 H # ).                                        ",
"                                                >._ _               C - h O 5 t 4 E i | ).                                      ",
"                                                                      : | F 5 5 ^ s A D # & >.).                                ",
"                                                                        + % +.O l ^ s X [ { ) 9 {                               ",
"                                                                          @ C p I 5 ^ q I 0 J F T                               ",
"                                                                            w Y p 0 b f L t 5 b M -.n                           ",
"                                                                              #.!.p , f b b f t ] - &                           ",
"                                                                                ).% 0 f b E O f q M {                           ",
"                                                                                + 9 J l t b E s l 0 7 ).                        ",
"                                                                                1 ( h s r f b q l E ; ~                         ",
"                                                                                  - S = d b f ^ t f K 9 >.                      ",
"                                                                                    -.-.< v ] L l ~.b } @                       ",
"                                                                                      U Y | z v / s r = < #                     ",
"                                                                                            o C | p J +.<                       ",
"                                                                                                ` ! % 9 c :                     ",
"                                                                                                      _ +                       ",
"                                                                                                                                ",
"                                                                                                                                ",
"                                                                                                                                ",
"                                                                                                                                ",
"                                                                                                                                ",
"                                                                                                                                ",
"                                                                                                                                ",
"                                                                                                                                ",
"                                                                                                                                ",
"                                                                                                                                "};
