/* XPM */
static char * 15_xpm[] = {
"64 64 108 2",
"  	c None",
". 	c #818181",
"+ 	c #7B7B7B",
"@ 	c #6C6C6C",
"# 	c #6F6F6F",
"$ 	c #878787",
"% 	c #797979",
"& 	c #616161",
"* 	c #515151",
"= 	c #7F7F7F",
"- 	c #838383",
"; 	c #737373",
"> 	c #5A5A5A",
", 	c #3E3E3E",
"' 	c #454545",
") 	c #595959",
"! 	c #757575",
"~ 	c #8B8B8B",
"{ 	c #6B6B6B",
"] 	c #4D4D4D",
"^ 	c #363636",
"/ 	c #3F3F3F",
"( 	c #606060",
"_ 	c #7A7A7A",
": 	c #747474",
"< 	c #5D5D5D",
"[ 	c #3C3C3C",
"} 	c #333333",
"| 	c #4B4B4B",
"1 	c #686868",
"2 	c #848484",
"3 	c #696969",
"4 	c #464646",
"5 	c #323232",
"6 	c #383838",
"7 	c #575757",
"8 	c #8D8D8D",
"9 	c #525252",
"0 	c #343434",
"a 	c #4C4C4C",
"b 	c #666666",
"c 	c #898989",
"d 	c #969696",
"e 	c #828282",
"f 	c #5B5B5B",
"g 	c #646464",
"h 	c #727272",
"i 	c #7E7E7E",
"j 	c #959595",
"k 	c #8A8A8A",
"l 	c #404040",
"m 	c #3A3A3A",
"n 	c #8C8C8C",
"o 	c #858585",
"p 	c #7D7D7D",
"q 	c #767676",
"r 	c #717171",
"s 	c #777777",
"t 	c #707070",
"u 	c #6A6A6A",
"v 	c #4E4E4E",
"w 	c #3D3D3D",
"x 	c #444444",
"y 	c #585858",
"z 	c #7C7C7C",
"A 	c #5C5C5C",
"B 	c #656565",
"C 	c #505050",
"D 	c #414141",
"E 	c #373737",
"F 	c #353535",
"G 	c #545454",
"H 	c #626262",
"I 	c #292929",
"J 	c #3B3B3B",
"K 	c #434343",
"L 	c #424242",
"M 	c #636363",
"N 	c #4F4F4F",
"O 	c #787878",
"P 	c #676767",
"Q 	c #6D6D6D",
"R 	c #8F8F8F",
"S 	c #929292",
"T 	c #939393",
"U 	c #484848",
"V 	c #999999",
"W 	c #949494",
"X 	c #474747",
"Y 	c #5E5E5E",
"Z 	c #8E8E8E",
"` 	c #393939",
" .	c #5F5F5F",
"..	c #4A4A4A",
"+.	c #808080",
"@.	c #919191",
"#.	c #888888",
"$.	c #909090",
"%.	c #6E6E6E",
"&.	c #535353",
"*.	c #2E2E2E",
"=.	c #555555",
"-.	c #494949",
";.	c #989898",
">.	c #565656",
",.	c #9B9B9B",
"'.	c #313131",
").	c #868686",
"                                                                                                                                ",
"                                                                                                                                ",
"                                                                                                                                ",
"                                                                                                                                ",
"                                                                                                                                ",
"                                                                                                                                ",
"                                                                                                                                ",
"                                                                                                                                ",
"                                                                                                                                ",
"                                                                                                                                ",
"                                    . + @ #                                                                                     ",
"                                  $ % & * & # =                                                                                 ",
"                                  - ; > , ' ) ! ~                                                                               ",
"                                      { ] ^ / ( _                                                                               ",
"                                      : < [ } | 1 2                                                                             ",
"                                      = 3 4 5 6 7 +                                                                             ",
"                                      8 ! 9 6 0 a b + c                                                                         ",
"                                      d e f , 6 / ] g h i                                                                       ",
"            j                       k d . f l m m , * & % n                                                                     ",
"          o 2 p . i q ; r       k s t + u v w w w [ , x y u 3                                                                   ",
"        z # > 7 & u & A B B 3 - _ < | C a D w / / , E F ' G ( B 1                                                               ",
"        . H 0 I J ' K L v G < g y D F 6 J , / l l / J L y M & g 3 p                                                             ",
"        ~ ! y / } E m m / D K x / ^ m , , / l l l , [ N q 2 O P Q . R S T                                                       ",
"        T $ p H U [ m [ / w [ [ , / l l l l l l / J J ) . V     % k W T W                                                       ",
"            n ! ( X m m w , l / l l D l l l l l l w [ C : ~           j j                                                       ",
"              + : A | K [ w / l l l l l l l l l l / [ w > t % e                                                                 ",
"                i @ g Y 9 x w / l l l l l l l l l l , m L C < h - ~ j                                                           ",
"                      t @ * [ , l l l l l l l l l l / , , m [ v B ! $ Z                                                         ",
"                        q y w J / l l l l l l l l l l l l J E ` , a & ! .                                                       ",
"                        h  .D E / l l l l l l l l l l l D l / [ ^ ^ J 9 u q                                                     ",
"                          g | [ w / l l l l l l l l l l l l D D / [ 6 w C 1 +                                                   ",
"                          3 & ..[ w l l l l / / / / l l l l l l l l , m , G { ! +.                                              ",
"                          @.O ) L w l l D / [ J [ w w [ w l l l l l l w ` l N f Q . #.@.                                        ",
"                          8 % ) D w l D l , w l K 4 D ` ^ m w / l l l l , [ [ J ..( @ . ~ $.                                    ",
"                      c e : & U w l l D [ [ ..A ( & & C L 6 ^ ^ m J J w , w m ^ 6 w L > %.% #.~ Z - h                           ",
"              k p   r h b 9 K m m , / , m x & % % ; = h 1 > | D [ [ J , D w 6 ` m J 5 J U y @ h r P  .1 O ~                     ",
"              $ # ) < &.' E } ^ ` [ ` ` ` U t k       o 2 e s Q ( > ) 7 ) C L , ` E E m J L | N | L D &.@ e                     ",
"              i B L 6 0 *.^ m L ..] X K l x ( _ %         S @.Z e _ : ; ; r b Y ..6 ` ` ^ 6 [ w J E E , C g h Z                 ",
"              = %.=.-.X K 7 < & # t P B B ) 7 g B { #.                    - e e t Y ) a l , w J / / , J J | 1 2 k               ",
"                q { @ Q @ ! e - +.8 . p Z #  .M M r k j ;.                    @.c o 2 q g >.' J / D D / ` m N u = T             ",
"                      =                         %.i R j W j                         ;.S $ ! 7 , ` [ / l [ m [ | P +.            ",
"                                                    ,.W $.Z                             @.$ { U E ^ m J 6 E '.5 ..& h           ",
"                                                                                          ~ q < N ..a ..' 4 ' l D 9 r +.        ",
"                                                                                              { { r t Q 1 3 r u B %.= $         ",
"                                                                                                  2 2 +.e - k ~ p ).@.          ",
"                                                                                                                                ",
"                                                                                                                                ",
"                                                                                                                                ",
"                                                                                                                                ",
"                                                                                                                                ",
"                                                                                                                                ",
"                                                                                                                                ",
"                                                                                                                                ",
"                                                                                                                                ",
"                                                                                                                                ",
"                                                                                                                                ",
"                                                                                                                                ",
"                                                                                                                                ",
"                                                                                                                                ",
"                                                                                                                                ",
"                                                                                                                                ",
"                                                                                                                                ",
"                                                                                                                                ",
"                                                                                                                                "};
