/* XPM */
static char * 2_xpm[] = {
"64 64 125 2",
"  	c None",
". 	c #929292",
"+ 	c #939393",
"@ 	c #A9A9A9",
"# 	c #787878",
"$ 	c #686868",
"% 	c #6E6E6E",
"& 	c #9B9B9B",
"* 	c #A6A6A6",
"= 	c #848484",
"- 	c #777777",
"; 	c #4B4B4B",
"> 	c #4E4E4E",
", 	c #313131",
"' 	c #575757",
") 	c #969696",
"! 	c #9A9A9A",
"~ 	c #7F7F7F",
"{ 	c #676767",
"] 	c #494949",
"^ 	c #3A3A3A",
"/ 	c #3C3C3C",
"( 	c #474747",
"_ 	c #808080",
": 	c #8B8B8B",
"< 	c #505050",
"[ 	c #535353",
"} 	c #3D3D3D",
"| 	c #404040",
"1 	c #383838",
"2 	c #414141",
"3 	c #888888",
"4 	c #6A6A6A",
"5 	c #4F4F4F",
"6 	c #363636",
"7 	c #3E3E3E",
"8 	c #7C7C7C",
"9 	c #AAAAAA",
"0 	c #9D9D9D",
"a 	c #454545",
"b 	c #3B3B3B",
"c 	c #828282",
"d 	c #A7A7A7",
"e 	c #3F3F3F",
"f 	c #5A5A5A",
"g 	c #989898",
"h 	c #6B6B6B",
"i 	c #444444",
"j 	c #878787",
"k 	c #5E5E5E",
"l 	c #5C5C5C",
"m 	c #8F8F8F",
"n 	c #9E9E9E",
"o 	c #6C6C6C",
"p 	c #545454",
"q 	c #464646",
"r 	c #434343",
"s 	c #7D7D7D",
"t 	c #AEAEAE",
"u 	c #626262",
"v 	c #949494",
"w 	c #636363",
"x 	c #292929",
"y 	c #393939",
"z 	c #5D5D5D",
"A 	c #6F6F6F",
"B 	c #6D6D6D",
"C 	c #757575",
"D 	c #838383",
"E 	c #9F9F9F",
"F 	c #909090",
"G 	c #919191",
"H 	c #616161",
"I 	c #2C2C2C",
"J 	c #979797",
"K 	c #818181",
"L 	c #858585",
"M 	c #717171",
"N 	c #646464",
"O 	c #353535",
"P 	c #282828",
"Q 	c #767676",
"R 	c #515151",
"S 	c #555555",
"T 	c #8C8C8C",
"U 	c #B1B1B1",
"V 	c #737373",
"W 	c #797979",
"X 	c #5B5B5B",
"Y 	c #A0A0A0",
"Z 	c #2E2E2E",
"` 	c #959595",
" .	c #8D8D8D",
"..	c #424242",
"+.	c #8E8E8E",
"@.	c #9C9C9C",
"#.	c #868686",
"$.	c #8A8A8A",
"%.	c #5F5F5F",
"&.	c #2F2F2F",
"*.	c #484848",
"=.	c #606060",
"-.	c #585858",
";.	c #323232",
">.	c #373737",
",.	c #333333",
"'.	c #2D2D2D",
").	c #696969",
"!.	c #7A7A7A",
"~.	c #ADADAD",
"{.	c #4C4C4C",
"].	c #A3A3A3",
"^.	c #747474",
"/.	c #565656",
"(.	c #4D4D4D",
"_.	c #656565",
":.	c #343434",
"<.	c #999999",
"[.	c #B8B8B8",
"}.	c #595959",
"|.	c #2A2A2A",
"1.	c #303030",
"2.	c #272727",
"3.	c #212121",
"4.	c #727272",
"                                                                                                                                ",
"                                                                                                                                ",
"                                                                                                                                ",
"                                                                                                                                ",
"                                                                                                                                ",
"                                                                                                                                ",
"                                                                                                                                ",
"                                                                                                                                ",
"                                                                                                                                ",
"                                                                                                                                ",
"                                                                                                      . +                       ",
"                                                                                                @ . # $ % &                     ",
"                                                                                            * = - ; > , ' )                     ",
"                                                                                      @ ! ~ { ] ] ^ / ( _                       ",
"                                                                                    : ~ < [ } ^ } | 1 2 =                       ",
"                                                                                  3 4 5 6 } 7 | | | } 8 9                       ",
"                                                                                0 $ a b | | | | | 7 ; c                         ",
"                                                                                d % e 7 | | | | e 6 f !                         ",
"                                                                                g h 6 2 | | | | 7 i j                           ",
"                                                                                j k e | | | | 2 ^ l m                           ",
"                                                                            n o p q e | | | | ^ r s d                           ",
"                                                                          t s ( e / | e e b ^ q u v                             ",
"                                                                        + w x y | | 7 e z A { B c                               ",
"                                                                      n C | e 2 | | 7 p D 0 E F                                 ",
"                                                  : G               j H I 1 | | | / ^ %                                         ",
"                                                J K n         v v _ 4 7 7 2 | 2 7 } C 9                                         ",
"                                            = L &           = M N ; O / | | | ^ P N 0                                           ",
"                                          Q R S T       U K ' | O e e | | 2 e e V E                                             ",
"                                        W X [ % n     Y Q | } 7 | | | | | b Z k G                                               ",
"                                  ` J M < ( B       E # 7 ^ | | | | | | | | $ F                                                 ",
"                                 .V ] 1 ..u &     +.C y b | | | | | | | e ] 8                                                   ",
"                    @.) #.F $.V k > 7 | } o @.0 T % y 1 | | | | | | | | 1 S `                                                   ",
"                  #.{ %.l ] &.*.e y e | b b k =.-...7 2 | | | | | | | e 2 Q 0                                                   ",
"                Q ' e e ;.7 2 } | | | | | e / } e b | | | | | | | | | } < #.                                                    ",
"              W < >.} | 2 | | | | | | | | | | | | | | | | | | | | 2 b a K                                                       ",
"            & # ,.e } '.| 1 / } | | | | | | | | | | | | | | | | | >.1 Q *                                                       ",
"              : ] X 8 Q u ).f 5 2 } | | | | | | | | | | | | | 2 / r !.~.                                                        ",
"              j C c     ! . @.D {.2 | | | | | | | | | | | | | 1 , M v       9 +.                                                ",
"              n ].            3 {.7 | | | | | | | | | | | | e i ^.g         D D                                                 ",
"                            +.l 6 | | | | | | | | | | | | | | /.$.    @.0 J J                                                   ",
"                            $.(.7 | | | | | | | | | | | | | ^ w 0     M X s                                                     ",
"                            +.f 6 | | | | | | | | | | | | | / _.g & B ; S j                                                     ",
"                              : >.| | | | | | | | | | | | | e ,.C u (.f -                                                       ",
"                            & % a | | | | | | | | | | | | | 2 b 7 2 [ !.                                                        ",
"                            V (.^ e | | | | | | | | | | | | | | 7 :.).                                                          ",
"                        <.A S | | | | | | | | | | | | | | | | | } z !                                                           ",
"                        K 5 6 } | | | | e e | | | >.7 | | | | / a M                                                             ",
"                        W ..e | | | } / q ^ } y b < z 6 e | e 1 _.:                                                             ",
"                      @.V ^ | | | e } p Q K S l u s = ; e | | 2 c                                                               ",
"                      !.} / | 7 7 } ' ^.@.  F T   [.+ }.1 | 7 *.#                                                               ",
"                    F ] 1 2 ^ ( 6 R -               +._.b | e q <.                                                              ",
"                    L |.e 1.a A _ 3                 ! { e | 6 l v                                                               ",
"                    ) ).q [ +.&                     Y ^.2.2 2 w g                                                               ",
"                      . +.K                           A e / , A                                                                 ",
"                                                    $.S | 2 -.3                                                                 ",
"                                                  <.V (.3.S W                                                                   ",
"                                                  Y G K 4.s                                                                     ",
"                                                        )                                                                       ",
"                                                                                                                                ",
"                                                                                                                                ",
"                                                                                                                                ",
"                                                                                                                                ",
"                                                                                                                                ",
"                                                                                                                                "};
