/* XPM */
static char * 3_xpm[] = {
"64 64 122 2",
"  	c None",
". 	c #999999",
"+ 	c #8F8F8F",
"@ 	c #939393",
"# 	c #7F7F7F",
"$ 	c #666666",
"% 	c #707070",
"& 	c #9B9B9B",
"* 	c #ABABAB",
"= 	c #868686",
"- 	c #5F5F5F",
"; 	c #323232",
"> 	c #949494",
", 	c #878787",
"' 	c #515151",
") 	c #3F3F3F",
"! 	c #3C3C3C",
"~ 	c #696969",
"{ 	c #8D8D8D",
"] 	c #ACACAC",
"^ 	c #898989",
"/ 	c #5A5A5A",
"( 	c #444444",
"_ 	c #3A3A3A",
": 	c #363636",
"< 	c #535353",
"[ 	c #9C9C9C",
"} 	c #818181",
"| 	c #5B5B5B",
"1 	c #3D3D3D",
"2 	c #414141",
"3 	c #717171",
"4 	c #404040",
"5 	c #3B3B3B",
"6 	c #606060",
"7 	c #929292",
"8 	c #888888",
"9 	c #5E5E5E",
"0 	c #393939",
"a 	c #575757",
"b 	c #6B6B6B",
"c 	c #454545",
"d 	c #353535",
"e 	c #6F6F6F",
"f 	c #9A9A9A",
"g 	c #7E7E7E",
"h 	c #616161",
"i 	c #969696",
"j 	c #858585",
"k 	c #585858",
"l 	c #383838",
"m 	c #9E9E9E",
"n 	c #A2A2A2",
"o 	c #373737",
"p 	c #3E3E3E",
"q 	c #737373",
"r 	c #4B4B4B",
"s 	c #505050",
"t 	c #767676",
"u 	c #A6A6A6",
"v 	c #6A6A6A",
"w 	c #474747",
"x 	c #4F4F4F",
"y 	c #5C5C5C",
"z 	c #909090",
"A 	c #6E6E6E",
"B 	c #4A4A4A",
"C 	c #747474",
"D 	c #919191",
"E 	c #595959",
"F 	c #8E8E8E",
"G 	c #343434",
"H 	c #5D5D5D",
"I 	c #A1A1A1",
"J 	c #7D7D7D",
"K 	c #8B8B8B",
"L 	c #4E4E4E",
"M 	c #636363",
"N 	c #232323",
"O 	c #202020",
"P 	c #A0A0A0",
"Q 	c #808080",
"R 	c #525252",
"S 	c #838383",
"T 	c #676767",
"U 	c #727272",
"V 	c #848484",
"W 	c #979797",
"X 	c #A3A3A3",
"Y 	c #494949",
"Z 	c #AAAAAA",
"` 	c #8C8C8C",
" .	c #434343",
"..	c #989898",
"+.	c #787878",
"@.	c #656565",
"#.	c #828282",
"$.	c #2C2C2C",
"%.	c #4C4C4C",
"&.	c #4D4D4D",
"*.	c #9D9D9D",
"=.	c #484848",
"-.	c #959595",
";.	c #303030",
">.	c #A4A4A4",
",.	c #646464",
"'.	c #686868",
").	c #545454",
"!.	c #424242",
"~.	c #757575",
"{.	c #555555",
"].	c #7C7C7C",
"^.	c #464646",
"/.	c #797979",
"(.	c #7A7A7A",
"_.	c #626262",
":.	c #565656",
"<.	c #6C6C6C",
"[.	c #8A8A8A",
"}.	c #777777",
"|.	c #313131",
"1.	c #212121",
"                                                                                                                                ",
"                                                                                                                                ",
"                                                                                                                                ",
"                                                                                                                                ",
"                                                                                  . + @                                         ",
"                                                                                  # $ % &                                       ",
"                                                                              * = - ; - >                                       ",
"                                                                              , ' ) ! ~ {                                       ",
"                                                                          ] ^ / ( _ : < [                                       ",
"                                                                          } | ! 1 2 : 3 &                                       ",
"                                                                        = - 4 5 4 4 1 6 7                                       ",
"                                                                      8 9 5 1 ) 4 ) 0 a &                                       ",
"                                                                      b c 5 4 4 4 4 d e f                                       ",
"                                                                    g < _ ) 4 4 4 ) 1 h i                                       ",
"                                                                    j k 0 4 4 4 4 2 l e m                                       ",
"                                                                    n b o 4 4 4 2 ! p 3                                         ",
"                                                                      q r p 4 4 _ l s t                                         ",
"                                                                    u v w ) ) ) x y e z                                         ",
"                                                                    A B 1 ) ! x C D &                                           ",
"                                                                  & 6 5 ) ) ) E F                                               ",
"                                                                  = G 5 4 4 o H I                                               ",
"                                                                > a 0 2 2 p ) J                                                 ",
"                                                                K L _ 2 2 1 r z                                                 ",
"                                                              z M N p 4 ) O h P                                                 ",
"                                                              Q r 1 2 4 ! B 8                                                   ",
"                                                            K ~ ) p 4 2 5 R z                                                   ",
"                                              .           S T 2 l 4 4 1 ; U i                                                   ",
"                                            f K f       V M 4 ! 4 4 4 1 x J                                                     ",
"                                            W } X     m ~ 2 5 4 4 4 4 4 Y S                                                     ",
"                                            . Z       `  .! ) 4 4 4 4 5 ( Q                                                     ",
"                                        ..# +.>     P @.0 ) 4 4 4 4 4 ! r #                                                     ",
"                                        # ' k 7     K x 0 4 4 4 4 4 4 p ( #.                                                    ",
"                                        3 R v     W q $.) 4 4 4 4 4 4 5 k i                                                     ",
"                                      = - %.g     V &.: 4 4 4 4 4 4 4 _ T u                                                     ",
"                                    *.% =.k @   -.U ( ) 2 4 4 4 4 4 0 _ ^       m K                                             ",
"                                  7 +.p : < g j $ &._ 4 4 4 4 4 4 4 l H 7       S {                                             ",
"                                  # k ! 4 ! _ r  .1 1 4 4 4 4 4 4 p ;.3 &     >.-.                                              ",
"                              ..} H  .p 4 ) ) ! p 4 4 4 4 4 4 4 4 _ s K     . S 8                                               ",
"                            > V H c _ ) 4 4 4 4 4 4 4 4 4 4 4 4 4 p 9 K     3 ' #                                               ",
"                        f g ,.l ; p 4 4 4 4 4 4 4 4 4 4 4 4 4 4 4 4 / @   F a R g                                               ",
"                      { '.).) p !.4 4 4 4 4 4 4 4 4 4 4 4 4 4 4 4 l R #.*.t x @.>                                               ",
"                      t Y 1 _ 4 ! 5 ) ) 1 4 4 4 4 4 4 4 4 4 4 4 4 p 2 x ~.{.&.t                                                 ",
"                    #./ _ 1 G p c B s =.2 4 4 4 4 4 4 4 4 4 4 4 4 4 4 ; ) d Y ].                                                ",
"                    q 4 l ) ).H % V { b 2 p 4 4 4 4 4 4 4 4 4 4 4 4 2 4 ) ! {.&                                                 ",
"                    ].^.c U 8 { f   Z /.5 4 4 4 4 4 4 4 4 4 4 4 4 4 4 4 2 5 H ^                                                 ",
"                    { (.- ,         W _.1 ) 4 4 4 4 4 4 4 4 4 4 4 4 4 4 ) 1 _.F                                                 ",
"                      , ^           + +.!.: 2 4 4 4 4 4 4 4 4 4 4 2 4 4 ) 0 3 I                                                 ",
"                                      F ~.2 1 4 4 4 4 4 4 4 4 l p ! p 4 4 l b ^                                                 ",
"                                        ..h ) 4 4 4 4 4 4 4 ) ) E < 1 p 4 p R D                                                 ",
"                                        , {._ ) 4 4 ) ) ! _ 5 :.].S x o 4 ) ) K                                                 ",
"                                        C r ) 4 4 4 1 4 r w H U * [ <.Y ! _ c q                                                 ",
"                                      K h 4 p 4 4 1  .<.[.#.[.>     j y l 2 !.$ @                                               ",
"                                      V &.o ) 4 4 5 < ].            m }.0 _ $.M 7                                               ",
"                                      S k 5 4 4 p 2 @.>               ^ y 1 !.~ [                                               ",
"                                      D ~ : 2 p G c t                 F < |.B +.                                                ",
"                                      D L 5 1  .)./.+                 S / Y ~ ^                                                 ",
"                                      }  .5 G r # +                   7 ^ j ^                                                   ",
"                                      #.1.) 5 #.*.                                                                              ",
"                                      ` @.&.- ^                                                                                 ",
"                                        z F 7                                                                                   ",
"                                                                                                                                ",
"                                                                                                                                ",
"                                                                                                                                ",
"                                                                                                                                "};
