/* XPM */
static char * 4_xpm[] = {
"64 64 120 2",
"  	c None",
". 	c #8E8E8E",
"+ 	c #888888",
"@ 	c #9F9F9F",
"# 	c #898989",
"$ 	c #676767",
"% 	c #646464",
"& 	c #8D8D8D",
"* 	c #7C7C7C",
"= 	c #464646",
"- 	c #474747",
"; 	c #777777",
"> 	c #9E9E9E",
", 	c #686868",
"' 	c #404040",
") 	c #3F3F3F",
"! 	c #5C5C5C",
"~ 	c #9A9A9A",
"{ 	c #4E4E4E",
"] 	c #3B3B3B",
"^ 	c #333333",
"/ 	c #545454",
"( 	c #9C9C9C",
"_ 	c #727272",
": 	c #454545",
"< 	c #6B6B6B",
"[ 	c #969696",
"} 	c #929292",
"| 	c #383838",
"1 	c #4F4F4F",
"2 	c #8C8C8C",
"3 	c #787878",
"4 	c #4B4B4B",
"5 	c #4C4C4C",
"6 	c #7E7E7E",
"7 	c #979797",
"8 	c #696969",
"9 	c #3E3E3E",
"0 	c #606060",
"a 	c #949494",
"b 	c #878787",
"c 	c #373737",
"d 	c #5A5A5A",
"e 	c #414141",
"f 	c #3C3C3C",
"g 	c #767676",
"h 	c #484848",
"i 	c #444444",
"j 	c #707070",
"k 	c #595959",
"l 	c #3A3A3A",
"m 	c #3D3D3D",
"n 	c #575757",
"o 	c #7A7A7A",
"p 	c #848484",
"q 	c #555555",
"r 	c #7F7F7F",
"s 	c #6E6E6E",
"t 	c #494949",
"u 	c #6F6F6F",
"v 	c #959595",
"w 	c #747474",
"x 	c #6D6D6D",
"y 	c #A0A0A0",
"z 	c #5F5F5F",
"A 	c #A5A5A5",
"B 	c #616161",
"C 	c #363636",
"D 	c #656565",
"E 	c #9D9D9D",
"F 	c #5E5E5E",
"G 	c #2F2F2F",
"H 	c #989898",
"I 	c #393939",
"J 	c #424242",
"K 	c #323232",
"L 	c #515151",
"M 	c #939393",
"N 	c #2E2E2E",
"O 	c #919191",
"P 	c #262626",
"Q 	c #8F8F8F",
"R 	c #505050",
"S 	c #565656",
"T 	c #838383",
"U 	c #353535",
"V 	c #535353",
"W 	c #828282",
"X 	c #636363",
"Y 	c #999999",
"Z 	c #626262",
"` 	c #868686",
" .	c #9B9B9B",
"..	c #5B5B5B",
"+.	c #585858",
"@.	c #A1A1A1",
"#.	c #A6A6A6",
"$.	c #2D2D2D",
"%.	c #343434",
"&.	c #8A8A8A",
"*.	c #717171",
"=.	c #6C6C6C",
"-.	c #4D4D4D",
";.	c #737373",
">.	c #525252",
",.	c #757575",
"'.	c #A8A8A8",
").	c #8B8B8B",
"!.	c #4A4A4A",
"~.	c #434343",
"{.	c #A2A2A2",
"].	c #808080",
"^.	c #666666",
"/.	c #7D7D7D",
"(.	c #2B2B2B",
"_.	c #858585",
":.	c #797979",
"<.	c #818181",
"[.	c #282828",
"}.	c #909090",
"                                                                                                                                ",
"                                                                                                                                ",
"                                                              . + @                                                             ",
"                                                            # $ % &                                                             ",
"                                                            * = - ;                                                             ",
"                                                          > , ' ) ! ~                                                           ",
"                                                          # { ] ^ / #                                                           ",
"                                                        ( _ : ) ] - < [                                                         ",
"                                                        } ! | ) ' ] 1 2                                                         ",
"                                                        3 4 ] ) ' | 5 6                                                         ",
"                                                      7 8 9 9 ' ' ) ] 0 a                                                       ",
"                                                      b / | ' ' ' ' c d b                                                       ",
"                                                      3 5 ] ' ' ' e f = g                                                       ",
"                                                      _ h | ' ' ' e | i j                                                       ",
"                                                      6 k l 9 ' ' f m n o                                                       ",
"                                                      ( p q ) 9 ' ' k r ~                                                       ",
"                                                        [ s t ) 9 - u v                                                         ",
"                                                          w h 9 f = x y                                                         ",
"                                                        ~ z f ) ) ] ! A                                                         ",
"                                                        > B ] ) e C D (                                                         ",
"                                                        E F G e ' m n H                                                         ",
"                                                        7 q I J e K L v                                                         ",
"                                                        M ! ] ) e N 0 v                                                         ",
"                                                        O k P e ) f L Q                                                         ",
"                                                        + R m e e I S +                                                         ",
"                                                        T / ] ) ' U V W                                                         ",
"                                                        6 { | ' ' m 5 *                                                         ",
"                                                      & $ m 9 ' ' ) 9 X &                                                       ",
"                                                      o R I ' ' ' ) ] 5 r                                                       ",
"                                                    ( s ' f ' ' ' ' f 9 s Y                                                     ",
"                                            M (     > z f ) ' ' ' ' ) 9 Z y       .                                             ",
"                                          ~ `  .    E B C ' ' ' ' ' ' I ..(     y + v                                           ",
"                                            Q       Y +.c ' ' ' ' ' e U F ~       &                                             ",
"                                            a @     M d | ' ' ' ' ' ) | q }     @.Q #.                                          ",
"                                          + _ p     & ! $.e ' ' ' ' ' %.d &.    & _ b                                           ",
"                                          *.5 =.    # -.l e ' ' ' ' ' U n Q     *.4 3                                           ",
"                                          ;.>.u     T n m ' ' ' ' ' ' l / b     8 1 ;.                                          ",
"                                          _ 1 x #.#.3 5 l ' ' ' ' ' ' ] 1 ,.  '.u 1 ;.                                          ",
"                                          j h 0 ).p k ' m ' ' ' ' ' ' ) J d T Q Z t =.                                          ",
"                                        ( Z c t n t ' 9 ' ' ' ' ' ' ' ' | J !.! t I D y                                         ",
"                                        p / | ) I m f ) ' ' ' ' ' ' ' ' ) ) m K ] f S &.                                        ",
"                                        o -.m ' ' ' ' ' ' ' ' ' ' ' ' ' ' ' e e e l 1 w                                         ",
"                                      7 , i m ' ' ' ' ' ' ' ' ' ' ' ' ' ' ' ' ' ' 9 ~.j {.                                      ",
"                                      T k 9 m ' ' ' ' ' ' ' ' ' ' ' ' ' ' ' ' ' ' ) %.D ].                                      ",
"                                    a ;.) 9 ' ' ' ) ' ' ' ' ' ' ' ' ' ' ' ' e ' ' ' I - ^.v                                     ",
"                                  2 *.I c e 9 9 9 ) ' ' ' ' ' ' ' ' ' ' ' ' m f 9 ) ' ) f ].7                                   ",
"                                y /./ ] ' ] m i t J 9 ' ' ' ' ' ' ' ' ' ' | = 5 i I f 9 I k o                                   ",
"                                b d J l m ) V ; 3 S | ' ' ' ' ' ' ' ' ' ' f k 3 w 1 e l ) ~.X &                                 ",
"                                6 { ] C J ! * ~ > x I ) ' ' ' ' ' ' ' ' ] 9 %  . .; ..9 l (.R r                                 ",
"                                ,.t U ' % r  .  @ =.!.U ] ) ' ' ' ' ) f ] >.*.    M _.Z J I 4 g                                 ",
"                                ;.) ] , ).        b 3 D i m ' ' ' ) ] : ! :.Q         b ! %.- 3                                 ",
"                                <.d -.$             E H < ~.f ' ' 9 = *.a               8 J +.].                                ",
"                                [ ` * 6                 *.- 9 ' ' m h w                 r :._.O                                 ",
"                                    &.7                 _ h 9 ' ' l 5 g                 v .                                     ",
"                                                        u - l ' ' 9 h w                                                         ",
"                                                        :.= I ' ) ^ h 6                                                         ",
"                                                        _.X ~.f ' J 8 ).                                                        ",
"                                                          W R I ] h <.                                                          ",
"                                                          Q !.] K X a                                                           ",
"                                                          . k [.l Z }.                                                          ",
"                                                          E o 5 { g (                                                           ",
"                                                            O p 2 v                                                             ",
"                                                                                                                                ",
"                                                                                                                                "};
