/* XPM */
static char * starship_xpm[] = {
"40 40 32 1",
" 	c None",
".	c #0000FF",
"+	c #C0C0C0",
"@	c #535353",
"#	c #474747",
"$	c #151515",
"%	c #505050",
"&	c #6A6A6A",
"*	c #7C7C7C",
"=	c #676767",
"-	c #888888",
";	c #2A2A2A",
">	c #0D0D0D",
",	c #4D4D4D",
"'	c #040404",
")	c #A4A4A4",
"!	c #B6B6B6",
"~	c #616161",
"{	c #737373",
"]	c #212121",
"^	c #A1A1A1",
"/	c #868686",
"(	c #939393",
"_	c #313131",
":	c #AAAAAA",
"<	c #5E5E5E",
"[	c #595959",
"}	c #999999",
"|	c #7F7F7F",
"1	c #B9B9B9",
"2	c #696969",
"3	c #2B2B2B",
"                                        ",
"                   ++                   ",
"                   ..                   ",
"                  +..+                  ",
"                  ....                  ",
"                 ;....+                 ",
"                 +....#                 ",
"                 ......                 ",
"                 ......                 ",
"                 ......                 ",
"                  ....                  ",
"                  ....                  ",
"                  ....                  ",
"                  ....>                 ",
"                  ....+                 ",
"                 #....+                 ",
"                 +....+                 ",
"                 ......                 ",
"                 ......                 ",
"             +! @......@ !+             ",
"              + +......+ +              ",
"             .. +......+ ..             ",
"             .. +......+ ..             ",
"             .. =......= ..             ",
"             ..............             ",
"            +..............+            ",
"            +..............+            ",
"            ................            ",
"           ..................           ",
"          +..................+          ",
"          ....=+........+=....          ",
"          ...  &........&  %..          ",
"          ..+    +....+    +..          ",
"           $+    +....+    +$           ",
"                 +....+                 ",
"                 $....&                 ",
"                  {..{                  ",
"                  +..+                  ",
"                  >++>                  ",
"                                        "};
