/* XPM */
static char * teste1_xpm[] = {
"45 40 531 2",
"  	c None",
". 	c #210505",
"+ 	c #260505",
"@ 	c #380000",
"# 	c #260606",
"$ 	c #390000",
"% 	c #500000",
"& 	c #390101",
"* 	c #2D1E1E",
"= 	c #534A49",
"- 	c #635D5C",
"; 	c #514847",
"> 	c #2C1F1F",
", 	c #4C4A4A",
"' 	c #777574",
") 	c #81807E",
"! 	c #767473",
"~ 	c #504D4C",
"{ 	c #373635",
"] 	c #656261",
"^ 	c #858383",
"/ 	c #8C8A88",
"( 	c #858483",
"_ 	c #6B6967",
": 	c #3B3B39",
"< 	c #41403F",
"[ 	c #73706F",
"} 	c #898786",
"| 	c #5E5D5C",
"1 	c #8A8988",
"2 	c #767472",
"3 	c #474645",
"4 	c #535251",
"5 	c #8A8886",
"6 	c #807F7D",
"7 	c #A3A09E",
"8 	c #807F7E",
"9 	c #595857",
"0 	c #656362",
"a 	c #989694",
"b 	c #C9C8C7",
"c 	c #888684",
"d 	c #696868",
"e 	c #706D6B",
"f 	c #84807F",
"g 	c #AAA9A6",
"h 	c #D0D0CF",
"i 	c #A7A6A3",
"j 	c #8F8B89",
"k 	c #706E6E",
"l 	c #554140",
"m 	c #878280",
"n 	c #8E8B8A",
"o 	c #B9B8B6",
"p 	c #D3D3D2",
"q 	c #B8B7B5",
"r 	c #928F8D",
"s 	c #7F7C7C",
"t 	c #503837",
"u 	c #8A0705",
"v 	c #B4291E",
"w 	c #924C4B",
"x 	c #8C8988",
"y 	c #8C8B8A",
"z 	c #A7A7A3",
"A 	c #C3C2C0",
"B 	c #A4A4A0",
"C 	c #8A8987",
"D 	c #827F7F",
"E 	c #8F4545",
"F 	c #B5291E",
"G 	c #8A0C0A",
"H 	c #5A3434",
"I 	c #9D8283",
"J 	c #BFBBBB",
"K 	c #ABA8A8",
"L 	c #80807F",
"M 	c #60615A",
"N 	c #8E8F89",
"O 	c #5D5F57",
"P 	c #7B7B7A",
"Q 	c #807D7D",
"R 	c #A8A6A6",
"S 	c #5C5A5A",
"T 	c #B6B3B3",
"U 	c #CFCDCD",
"V 	c #C6C5C4",
"W 	c #868381",
"X 	c #878786",
"Y 	c #2E2F2B",
"Z 	c #4A4B42",
"` 	c #2D2E2A",
" .	c #888887",
"..	c #7E7C7B",
"+.	c #C5C4C3",
"@.	c #B6B2B2",
"#.	c #5C5959",
"$.	c #AEABAB",
"%.	c #C3C2C2",
"&.	c #BBB8B8",
"*.	c #898785",
"=.	c #999897",
"-.	c #313231",
";.	c #171716",
">.	c #303030",
",.	c #999998",
"'.	c #817E7D",
").	c #ADAAAA",
"!.	c #4E4D4C",
"~.	c #A6A4A3",
"{.	c #D3CFCF",
"].	c #D4D1D1",
"^.	c #928E8D",
"/.	c #A9A8A6",
"(.	c #444545",
"_.	c #0E0F0E",
":.	c #444444",
"<.	c #AAA9A8",
"[.	c #A6A3A3",
"}.	c #4D4C4C",
"|.	c #474545",
"1.	c #636262",
"2.	c #B1AEAE",
"3.	c #D7D4D5",
"4.	c #DEDEDE",
"5.	c #A19F9E",
"6.	c #AEACAA",
"7.	c #777776",
"8.	c #1B1B1B",
"9.	c #787878",
"0.	c #ADABAB",
"a.	c #9D9B9B",
"b.	c #464545",
"c.	c #4B4A4A",
"d.	c #686767",
"e.	c #757474",
"f.	c #ABA9A9",
"g.	c #D6D4D4",
"h.	c #E2E2E2",
"i.	c #AAA8A8",
"j.	c #A09E9D",
"k.	c #9F9E9D",
"l.	c #474948",
"m.	c #A1A09F",
"n.	c #9B9A99",
"o.	c #A8A7A7",
"p.	c #545353",
"q.	c #767474",
"r.	c #807E7E",
"s.	c #7D7C7C",
"t.	c #A2A0A0",
"u.	c #D4D3D3",
"v.	c #E5E5E5",
"w.	c #BBB9B9",
"x.	c #878584",
"y.	c #B7B5B4",
"z.	c #929292",
"A.	c #B5B2B1",
"B.	c #595858",
"C.	c #8B8A8A",
"D.	c #888586",
"E.	c #8B8888",
"F.	c #989797",
"G.	c #D0CFCF",
"H.	c #E6E6E5",
"I.	c #D1CFCF",
"J.	c #7F7D7C",
"K.	c #ADACAA",
"L.	c #CBC9C8",
"M.	c #AFACAB",
"N.	c #858180",
"O.	c #757473",
"P.	c #626161",
"Q.	c #817F7F",
"R.	c #898788",
"S.	c #8E8C8D",
"T.	c #999697",
"U.	c #949293",
"V.	c #929191",
"W.	c #CDCCCC",
"X.	c #EBEBEB",
"Y.	c #DCDCDC",
"Z.	c #8D8A8A",
"`.	c #9F9D9C",
" +	c #BCBAB9",
".+	c #A3A1A0",
"++	c #918F8E",
"@+	c #626160",
"#+	c #858484",
"$+	c #949292",
"%+	c #A9A6A6",
"&+	c #AAA7A7",
"*+	c #A09E9F",
"=+	c #8C8A8B",
"-+	c #BDBBBB",
";+	c #D2D0D0",
">+	c #D5D3D2",
",+	c #9D9A9B",
"'+	c #949190",
")+	c #AEACAB",
"!+	c #959392",
"~+	c #9E9C9C",
"{+	c #454444",
"]+	c #6B6A6A",
"^+	c #8B898A",
"/+	c #969595",
"(+	c #B7B5B5",
"_+	c #ABAAAA",
":+	c #8F8E8E",
"<+	c #C6C4C5",
"[+	c #E2E0E0",
"}+	c #EBEAEA",
"|+	c #BDBABB",
"1+	c #8A8785",
"2+	c #878583",
"3+	c #B4B2B3",
"4+	c #6B6969",
"5+	c #4D4B4B",
"6+	c #7A7878",
"7+	c #908E8D",
"8+	c #989696",
"9+	c #B6B5B5",
"0+	c #B6B4B4",
"a+	c #BEBDBD",
"b+	c #B9B8B8",
"c+	c #E2E2E1",
"d+	c #EEEDED",
"e+	c #C9C6C7",
"f+	c #928F8E",
"g+	c #8F8C8B",
"h+	c #AEACAC",
"i+	c #797878",
"j+	c #575655",
"k+	c #7E7C7C",
"l+	c #959494",
"m+	c #A19F9F",
"n+	c #A9A7A7",
"o+	c #B6B4B5",
"p+	c #C7C6C7",
"q+	c #C9C8C8",
"r+	c #CBCACA",
"s+	c #CBC9C9",
"t+	c #B2B0B0",
"u+	c #979596",
"v+	c #B9B7B7",
"w+	c #E1E0E0",
"x+	c #C0BDBD",
"y+	c #999594",
"z+	c #8B8988",
"A+	c #969392",
"B+	c #C8C7C7",
"C+	c #C7C6C6",
"D+	c #583232",
"E+	c #8C8A8A",
"F+	c #9C9A9B",
"G+	c #A2A1A3",
"H+	c #B4B2B2",
"I+	c #C1BFBF",
"J+	c #BFBDBE",
"K+	c #CBCBCB",
"L+	c #D4D4D4",
"M+	c #D3D3D3",
"N+	c #BFBDBD",
"O+	c #A4A0A1",
"P+	c #DEDBDB",
"Q+	c #F1F0F0",
"R+	c #D8D6D6",
"S+	c #B5B2B2",
"T+	c #828180",
"U+	c #B4B1B1",
"V+	c #C7C7C7",
"W+	c #583131",
"X+	c #591413",
"Y+	c #810000",
"Z+	c #A07E7E",
"`+	c #B1B0B0",
" @	c #C4C2C3",
".@	c #CAC7C7",
"+@	c #C7C5C6",
"@@	c #D5D1D2",
"#@	c #C8C7C8",
"$@	c #D2D1D1",
"%@	c #C2C0C0",
"&@	c #9F9C9D",
"*@	c #B0ACAC",
"=@	c #F0EFF0",
"-@	c #DEDDDD",
";@	c #838281",
">@	c #581313",
",@	c #651313",
"'@	c #900000",
")@	c #9C0000",
"!@	c #AB7373",
"~@	c #C9C7C7",
"{@	c #CDCBCB",
"]@	c #CAC8C9",
"^@	c #D2D0D1",
"/@	c #DCDBDC",
"(@	c #D5D4D4",
"_@	c #DFDEDE",
":@	c #C8C6C7",
"<@	c #A29F9F",
"[@	c #A39E9E",
"}@	c #F2F1F1",
"|@	c #E2E0E1",
"1@	c #C5C3C3",
"2@	c #939292",
"3@	c #DAD9D9",
"4@	c #E2E1E1",
"5@	c #D8D7D7",
"6@	c #641313",
"7@	c #6D0A0A",
"8@	c #8B0000",
"9@	c #A80101",
"0@	c #AD6F6F",
"a@	c #C6C3C4",
"b@	c #CECDCD",
"c@	c #D4D2D3",
"d@	c #DEDCDC",
"e@	c #D9D8D8",
"f@	c #C1C0C1",
"g@	c #CAC9C9",
"h@	c #E3E3E3",
"i@	c #E4E4E4",
"j@	c #B0ADAE",
"k@	c #DDDCDD",
"l@	c #F0F0F0",
"m@	c #E4E3E3",
"n@	c #C2C1C1",
"o@	c #919091",
"p@	c #C1C0C0",
"q@	c #DBDADA",
"r@	c #DDDDDD",
"s@	c #BAB7B8",
"t@	c #CBC8C8",
"u@	c #AE7070",
"v@	c #6D0909",
"w@	c #601B1B",
"x@	c #910000",
"y@	c #9A0D0D",
"z@	c #AC8382",
"A@	c #DAD8D8",
"B@	c #E3E2E3",
"C@	c #DADADA",
"D@	c #C0BFBF",
"E@	c #CECCCC",
"F@	c #D6D6D5",
"G@	c #E8E7E7",
"H@	c #E7E7E7",
"I@	c #D2D1D2",
"J@	c #B3B1B1",
"K@	c #888383",
"L@	c #C0BFC0",
"M@	c #8F898A",
"N@	c #6D6A6A",
"O@	c #B7B5B6",
"P@	c #878282",
"Q@	c #B0AEAF",
"R@	c #AD8484",
"S@	c #601A1A",
"T@	c #601B1A",
"U@	c #880000",
"V@	c #943F40",
"W@	c #AEADAD",
"X@	c #C7C5C4",
"Y@	c #DEDDDE",
"Z@	c #E4E2E3",
"`@	c #D3D3D4",
" #	c #CFCDCE",
".#	c #D3D0D1",
"+#	c #DDDBDB",
"@#	c #DBD9DA",
"##	c #C1BEBD",
"$#	c #A9A8A8",
"%#	c #A09D9D",
"&#	c #AAA6A7",
"*#	c #D5D3D4",
"=#	c #CFCCCD",
"-#	c #A29D9E",
";#	c #D1CECD",
">#	c #DFDDDE",
",#	c #C7C4C4",
"'#	c #ADACAC",
")#	c #954040",
"!#	c #611A1A",
"~#	c #6D0404",
"{#	c #930202",
"]#	c #C3B6B6",
"^#	c #E3E2E2",
"/#	c #D5D5D6",
"(#	c #DCDADB",
"_#	c #EAE9E9",
":#	c #EDEDED",
"<#	c #EBE8E9",
"[#	c #ECEBEA",
"}#	c #E2E1E2",
"|#	c #B9B7B6",
"1#	c #ACABAB",
"2#	c #A4A1A1",
"3#	c #B6AFB0",
"4#	c #DCD9DA",
"5#	c #AEA9AA",
"6#	c #898686",
"7#	c #ACAAAA",
"8#	c #DFDDDC",
"9#	c #ECEBEB",
"0#	c #680404",
"a#	c #6A1515",
"b#	c #970000",
"c#	c #BF9697",
"d#	c #D7D5D4",
"e#	c #E6E5E6",
"f#	c #E7E5E5",
"g#	c #E8E6E7",
"h#	c #EFEEEF",
"i#	c #F0EEEE",
"j#	c #BAB8B8",
"k#	c #A9A7A8",
"l#	c #C39491",
"m#	c #C4BDBE",
"n#	c #CFCFCF",
"o#	c #DBD9D9",
"p#	c #B4B0B1",
"q#	c #8E8C8C",
"r#	c #C39490",
"s#	c #E0DEDD",
"t#	c #ECEBEC",
"u#	c #960000",
"v#	c #691413",
"w#	c #7F0808",
"x#	c #9F4545",
"y#	c #BDB9B9",
"z#	c #D6D3D3",
"A#	c #E6E5E5",
"B#	c #EBE9EA",
"C#	c #EBE8E8",
"D#	c #ECECEC",
"E#	c #B8A2A1",
"F#	c #DE8474",
"G#	c #C9C1C1",
"H#	c #BDBCBD",
"I#	c #A19E9E",
"J#	c #828181",
"K#	c #7E0807",
"L#	c #5F1818",
"M#	c #990000",
"N#	c #C7AFAF",
"O#	c #BEBCBC",
"P#	c #A4A3A2",
"Q#	c #ADABAA",
"R#	c #B8B6B6",
"S#	c #BBBABA",
"T#	c #BEBCBB",
"U#	c #BDBCBC",
"V#	c #C39897",
"W#	c #D9705D",
"X#	c #C7BFC0",
"Y#	c #C6C5C6",
"Z#	c #C1BEBE",
"`#	c #A09C9C",
" $	c #868483",
".$	c #C6C5C5",
"+$	c #5F1716",
"@$	c #760E0D",
"#$	c #AF7D7C",
"$$	c #8A8989",
"%$	c #6C6A69",
"&$	c #787574",
"*$	c #83807F",
"=$	c #8E8C8B",
"-$	c #989594",
";$	c #B1AEAD",
">$	c #B4B3B2",
",$	c #B2B1B0",
"'$	c #B5B3B3",
")$	c #B68F8E",
"!$	c #D46958",
"~$	c #C9C1C2",
"{$	c #D5D3D3",
"]$	c #B4AFAF",
"^$	c #8C8A89",
"/$	c #979594",
"($	c #750D0C",
"_$	c #613737",
":$	c #535352",
"<$	c #424241",
"[$	c #494746",
"}$	c #4B4A49",
"|$	c #514F4E",
"1$	c #5A5857",
"2$	c #615F5E",
"3$	c #6C6968",
"4$	c #706F6E",
"5$	c #6F6E6D",
"6$	c #747372",
"7$	c #7B4E4D",
"8$	c #CF5848",
"9$	c #CEC5C6",
"0$	c #D3D2D2",
"a$	c #BBB7B7",
"b$	c #7B4E4C",
"c$	c #737271",
"d$	c #6E6D6C",
"e$	c #6A6867",
"f$	c #605E5D",
"g$	c #595756",
"h$	c #504E4D",
"i$	c #4B4948",
"j$	c #484645",
"k$	c #41413F",
"l$	c #525251",
"m$	c #603636",
"n$	c #C1463C",
"o$	c #CFC7C8",
"p$	c #C0463C",
"q$	c #98504F",
"r$	c #CBC6C7",
"s$	c #575555",
"t$	c #3A3A38",
"u$	c #272826",
"v$	c #50504F",
"w$	c #97504E",
"x$	c #31312F",
"y$	c #716F6F",
"z$	c #393837",
"A$	c #313130",
"B$	c #2D2D2B",
"C$	c #2C2C2B",
"D$	c #383837",
"E$	c #726F70",
"F$	c #30302F",
"                                            .                                             ",
"                                          + @ #                                           ",
"                                          $ % &                                           ",
"                                        * = - ; >                                         ",
"                                        , ' ) ! ~                                         ",
"                                      { ] ^ / ( _ :                                       ",
"                                      < [ } | 1 2 3                                       ",
"                                      4 5 6 7 8 / 9                                       ",
"                                      0 a / b c a d                                       ",
"                                      e f g h i j k                                       ",
"                                    l m n o p q r s t                                     ",
"                                u v w x y z A B C D E F G                                 ",
"                              H I J K x L M N O P Q R J I H                               ",
"                              S T U V W X Y Z `  ...+.U @.#.                              ",
"                                $.%.&.*.=.-.;.>.,.'.&.%.).                                ",
"                              !.~.{.].^./.(._.:.<.x ].{.[.}.                              ",
"                            |.1.2.3.4.5.6.7.8.9.0.a.4.3.2.1.b.                            ",
"                          c.d.e.f.g.h.i.j.k.l.m.n.o.h.g.f.e.d.c.                          ",
"                        p.q.r.s.t.u.v.w.x.y.z.A.W w.v.u.t.s.r.q.p.                        ",
"                      B.e.C.D.E.F.G.H.I.J.K.L.M.N.I.H.G.F.E.D.C.O.9                       ",
"                    P.Q.R.S.T.U.V.W.X.Y.Z.`. +.+++Y.X.W.V.U.T.S.R.Q.@+                    ",
"                  d #+$+a.%+&+*+=+-+;+>+,+'+)+!+~+>+;+-+=+*+&+%+a.$+#+d                   ",
"              {+]+^+/+5.0.(+(+_+:+<+[+}+|+1+j.2+-+}+[+3+:+_+(+(+0.5./+^+4+{+              ",
"            5+6+7+8+t.9+0+a+b+t.7+%.c+d+e+f+!+g+e+d+c+h+7+t.b+a+0+9+t.8+7+i+5+            ",
"          j+k+l+m+n+o+p+q+r+s+t+u+v+u.w+x+y+z+A+x+w+u.v+u+t+s+B+C+p+o+n+m+l+k+j+          ",
"        D+E+F+G+H+I+J+K+G.L+M+N+t.O+P+Q+R+S+T+U+R+Q+P+O+t.N+M+V+%.K+J+I+H+G+F+E+W+        ",
"      X+Y+Z+`+ @.@+@@@#@W.I.$@%@&@*@[+=@-@%@;@%@-@=@[+*@&@%@$@I.W.#@@@+@.@ @`+Z+Y+>@      ",
"    ,@'@)@!@~@{@]@^@/@W.(@_@_@:@<@[@w+}@|@1@2@1@3@4@5@@.<@:@_@_@(@W./@^@]@{@~@!@)@'@6@    ",
"  7@8@9@0@a@b@c@d@e@f@g@3@h@i@b@&+j@k@l@m@n@o@p@q@r@$@s@%+b@i@h@3@g@f@e@d@c@b@t@u@9@8@v@  ",
"w@x@y@z@(+C+A@B@C@D@E@$@F@G@H@I@J@K@(+L@S+M@N@M@S+L@O@P@Q@I@H@G@F@$@E@D@C@B@A@C+(+R@y@x@S@",
"T@U@V@W@X@Y@Z@`@r+ #-@h@.#+#@###$#%#&#*#=#-#Q -#=#*#&+&@R ;#>#+#.#h@-@ #r+`@Z@Y@,#'#)#U@!#",
"  ~#{#]#d@^#M+/#q@(#_#:#<#[#}#|#1#2#3#L+4#5#6#5#4#(@3#2#7#8#9#[#<#:#_#(#q@/#M+^#d@]#{#0#  ",
"  a#b#c#d#G.^#e#f#g#h#l@i#l@m@j#k#l#m#n#o#p#q#p#o#n#m#r#n+s#t#l@i#l@h#g#f#e#^#G.d#c#u#v#  ",
"    w#x#y#z#A#B#C#g#9#D#9#D#k@%@E#F#G#H#D@I#J#I#D@H#G#F#E#A@^#D#9#D#9#g#C#B#A#z#y#x#K#    ",
"    L#M#N#O#P#n+Q#t+R#S#T#U#(+E@V#W#X#Y#Z#`# $`#Z#.$X#W#V#E@(+U#T#S#R#t+Q#n+P#O#N#M#+$    ",
"      @$#$$$%$&$*$=$-$%#;$>$,$'$)$!$~$^@{$]$^$]${$^@~$!$)$'$,$>$;$%#/$=$*$&$%$$$#$($      ",
"        _$:$<$[$}$|$1$2$3$4$5$6$7$8$9$0$q@a$^$a$q@0$9$8$b$c$d$5$e$f$g$h$i$j$k$l$m$        ",
"                                  n$o$l+:+6+d$6+:+l+o$p$                                  ",
"                                  q$r$s$t$u$v$u$t$s$r$w$                                  ",
"                                  x$y$z$A$B$  C$x$D$E$F$                                  "};
