/* XPM */
static char * teste1_xpm[] = {
"32 32 5 1",
" 	c None",
".	c #3D00FF",
"+	c #3E00FF",
"@	c #3F00FE",
"#	c #4000FE",
"                                ",
"                                ",
"           ..........           ",
"         ..............         ",
"       .................        ",
"      ...................       ",
"     .....................      ",
"    .++......     .........     ",
"    @+.....         .....++#    ",
"   ......            ....++@    ",
"   .....              ....++@   ",
"  ......               ....+#   ",
"  .....                 ...+#   ",
"  .....                 ....+   ",
"  ....                  ......  ",
" .....                   .....  ",
" .....                   .....  ",
"  ....                   ....   ",
"  .....                  ....   ",
"  .....                 .....   ",
"  ......                .....   ",
"   .....               .....    ",
"   ......             ......    ",
"    .......          ......     ",
"    .........      ........     ",
"     .....................      ",
"      ...................       ",
"       ................         ",
"         .............          ",
"            .......             ",
"                                ",
"                                "};
